<?xml version="1.0" standalone="no"?>
<!DOCTYPE svg PUBLIC "-//W3C//DTD SVG 1.1//EN" "http://www.w3.org/Graphics/SVG/1.1/DTD/svg11.dtd" >
<svg xmlns="http://www.w3.org/2000/svg">
<metadata>Generated by IcoMoon</metadata>
<defs>
<font id="icomoon" horiz-adv-x="1024">
<font-face units-per-em="1024" ascent="960" descent="-64" />
<missing-glyph horiz-adv-x="1024" />
<glyph unicode="&#x20;" horiz-adv-x="512" d="" />
<glyph unicode="&#xe900;" glyph-name="add" d="M490.572-43.46h42.698v471.398h477.192v42.233h-477.192v471.422h-42.698v-471.422h-477.216v-42.233h477.216z" />
<glyph unicode="&#xe901;" glyph-name="arr_btm" d="M514.445 206.092c-8.138 0-16.276 3.071-22.53 9.212l-460.268 451.981c-12.673 12.442-12.854 32.801-0.414 45.47 12.444 12.673 32.803 12.853 45.47 0.414l437.739-429.855 437.74 429.855c12.669 12.441 33.029 12.257 45.47-0.414s12.257-33.029-0.415-45.47l-460.265-451.979c-6.254-6.142-14.393-9.213-22.53-9.213z" />
<glyph unicode="&#xe902;" glyph-name="arr_btm_fill" d="M806.994 695.59h-591.643l296.65-493.236z" />
<glyph unicode="&#xe903;" glyph-name="arr_btm2" d="M558.016 788.992v-574.016l208 216q12.992 14.016 31.008 14.016t31.488-12.512 13.504-30.496-12-32l-284-294.016q-12.992-14.016-31.488-14.016t-31.488 14.016l-284.992 296q-12 12.992-12 30.016 0 19.008 14.016 32 12.992 12.992 31.008 12.512t31.008-13.504l208-216v572.992q0 16.992 12 30.016t28.992 14.016q19.008 0.992 32.992-12.512t14.016-32.512z" />
<glyph unicode="&#xe904;" glyph-name="arr_lt" d="M512 896c-247.2 0-448-200.8-448-448s200.8-448 448-448 448 200.8 448 448-200.8 448-448 448zM512 64c-212 0-384 172-384 384s172 384 384 384 384-172 384-384-172-384-384-384zM670.4 674.4l-226.4-226.4 226.4-226.4-44.8-45.6-272 272 272 272 44.8-45.6z" />
<glyph unicode="&#xe905;" glyph-name="arr_rt" d="M512 832c212 0 384-172 384-384s-172-384-384-384-384 172-384 384 172 384 384 384zM512 896c-247.2 0-448-200.8-448-448s200.8-448 448-448 448 200.8 448 448-200.8 448-448 448zM398.4 720l-45.6-45.6 227.2-226.4-226.4-226.4 45.6-45.6 272 272-272.8 272z" />
<glyph unicode="&#xe906;" glyph-name="arr_up_fill" d="M217.006 200.41h591.643l-296.65 493.236z" />
<glyph unicode="&#xe907;" glyph-name="back" d="M761.77-39.875c-8.327 0-16.645 3.212-22.945 9.627l-451.978 460.268c-12.284 12.508-12.284 32.548 0 45.056l451.978 460.268c12.444 12.674 32.801 12.854 45.47 0.414 12.674-12.442 12.854-32.801 0.415-45.47l-429.855-437.739 429.855-437.74c12.441-12.673 12.257-33.029-0.415-45.47-6.26-6.148-14.397-9.215-22.529-9.215z" />
<glyph unicode="&#xe908;" glyph-name="box" d="M495.16 816.028l-369.026-145.066v-397.062l445.241-217.912 326.491 217.912v397.062l-402.706 145.066zM571.375 482.27v-355.12l-4.616-3.086-381.251 186.603v320.098l1.684 0.655 384.183-149.15zM589.273 507.154l-0.376 0.030-361.106 140.203 106.088 41.724 346.577-133.872-91.183-48.085zM749.868 591.787l-334.663 129.286 80.889 31.746 332.172-119.652-78.398-41.38zM482.313 250.699l-207.685 97.604v-36.518l207.685-97.635v36.549zM301.819 442.042l2.435-0.748v-81.047l29.625-11.289v82.544l2.433-0.811 27.381-9.044-44.718 85.164-43.906-55.976 26.75-8.793zM420.381 399.384l2.494-0.812v-89.186l29.752-11.228v90.651l2.431-0.812v0.029l26.567-8.761-43.844 86.658-44.843-57.503 27.443-9.036z" />
<glyph unicode="&#xe909;" glyph-name="cart" d="M1024.2 473.5v147.4c0 53.6-43.6 97.2-97.2 97.2h-583.5c-13.4 0-24.3-10.9-24.3-24.3s10.9-24.3 24.3-24.3h583.5c26.8 0 48.6-21.8 48.6-48.6v-147.4c0-43.2-1.4-50.5-49.1-57.3l-600.5-85.8c-57 199.3-153.6 540.2-153.6 540.2-3 10.5-12.5 17.7-23.4 17.7h-121.5c-13.4 0-24.3-10.9-24.3-24.3s10.9-24.3 24.3-24.3h103.2c24-84.6 127.6-450.2 170.6-599.5 15.2-52.7 37.7-81.2 112.9-81.2h585.7c13.4 0 24.3 10.9 24.3 24.3s-10.9 24.3-24.3 24.3h-585.7c-60.7 0-71.6 65-74.6 75.6l593.7 84.8c76.8 11 90.9 44.1 90.9 105.5zM319.2 13.1c0-26.841 21.759-48.6 48.6-48.6s48.6 21.759 48.6 48.6v0c0 26.841-21.759 48.6-48.6 48.6s-48.6-21.759-48.6-48.6v0zM854 13.1c0-26.841 21.759-48.6 48.6-48.6s48.6 21.759 48.6 48.6v0c0 26.841-21.759 48.6-48.6 48.6s-48.6-21.759-48.6-48.6v0z" />
<glyph unicode="&#xe90a;" glyph-name="cart_empty" d="M377.769 422.058v17.285l79.926 91.802c-9.058-0.495-17.035-0.723-24.009-0.723h-51.203v17.304h102.679v-14.089l-68.030-79.731-13.096-14.564c9.52 0.737 18.483 1.038 26.836 1.038h58.090v-18.322l-111.192 0.001zM562.759 537.242v19.389l90.037 103.412c-10.201-0.526-19.226-0.804-27.031-0.804h-57.701v19.464h115.602v-15.904l-76.551-89.802-14.785-16.366c10.745 0.817 20.827 1.232 30.252 1.232h65.385v-20.667l-125.208 0.046zM772.958 638.46v29.091l134.548 154.448c-15.295-0.804-28.768-1.214-40.437-1.214h-86.179v29.046h172.773v-23.681l-114.448-134.111-22.082-24.486c16.045 1.182 31.104 1.771 45.214 1.771h97.681v-30.897l-187.071 0.034zM758.497 285.863c8.963 0 17.399 4.427 22.535 11.904l150.959 220.208c5.781 8.38 6.412 19.267 1.702 28.257-4.749 8.936-14.483 18.088-24.492 16.447-5.667-0.952-14.551-8.655-18.867-12.789-9.439-9.024-32.738-43.772-32.738-43.772l-113.517-165.564h-462.894v330.605c0 13.070-9.271 24.385-22.094 26.864l-163.881 31.701c-14.96 3.031-29.216-6.773-32.043-21.632-2.894-14.826 6.772-29.158 21.611-32.011l141.788-27.484v-110.858c0-0.723 0.035-1.447 0.081-2.131-0.046-0.723-0.081-1.447-0.081-2.151v-220.255c0-15.12 12.2-27.339 27.314-27.339h5.144l-0.201-77.681c-21.773-16.226-35.995-42.472-35.995-72.206 0-49.21 39.008-89.205 86.922-89.205 47.893 0 86.888 39.995 86.888 89.205 0 12.247-2.384 23.932-6.772 34.557h224.557c-4.355-10.625-6.766-22.31-6.766-34.557 0-49.21 38.989-89.205 86.887-89.205 47.946 0 86.976 39.995 86.976 89.205 0 49.201-39.031 89.222-86.976 89.222-0.635 0-1.333-0.028-1.983-0.041-0.542 0.041-1.079 0.041-1.614 0.041h-377.478l0.167 60.664 444.86 0.001zM694.558 170.518c17.799 0 32.318-15.435 32.318-34.542 0-19.051-14.491-34.565-32.318-34.565-17.773 0-32.276 15.528-32.276 34.565-0.027 19.068 14.503 34.542 32.276 34.542v0zM342.015 135.977c0-19.038-14.51-34.565-32.29-34.565-17.758 0-32.277 15.528-32.277 34.565 0 19.068 14.497 34.542 32.277 34.542s32.29-15.473 32.29-34.542v0z" />
<glyph unicode="&#xe90b;" glyph-name="cart2" d="M246.4 48c0-37.114 30.086-67.2 67.2-67.2s67.2 30.086 67.2 67.2v0c0 37.114-30.086 67.2-67.2 67.2s-67.2-30.086-67.2-67.2v0zM716.8 48c0-37.114 30.086-67.2 67.2-67.2s67.2 30.086 67.2 67.2v0c0 37.114-30.086 67.2-67.2 67.2s-67.2-30.086-67.2-67.2v0zM905.6 195.2h-537.6c-28.8 0-57.6 25.6-64 54.4l-96 566.4c-9.6 54.4-60.8 96-115.2 96h-22.4c-12.8 0-25.6-12.8-25.6-25.6s12.8-25.6 25.6-25.6h22.4c28.8 0 57.6-25.6 64-54.4l96-566.4c9.6-54.4 60.8-96 115.2-96h537.6c12.8 0 25.6 12.8 25.6 25.6s-9.6 25.6-25.6 25.6zM880 780.8h-572.8c-12.8 0-25.6-12.8-25.6-25.6s12.8-25.6 25.6-25.6h572.8c25.6 0 38.4-16 32-41.6l-70.4-281.6c-6.4-32-41.6-57.6-73.6-60.8l-396.8-28.8c-12.8 0-25.6-12.8-22.4-28.8 0-12.8 12.8-25.6 28.8-22.4l396.8 28.8c54.4 3.2 105.6 48 118.4 99.2l70.4 281.6c12.8 54.4-25.6 105.6-83.2 105.6z" />
<glyph unicode="&#xe90c;" glyph-name="cats" d="M61.982 749.649h904.947c0 0 0 0 0 0 16.659 0 30.163 13.504 30.163 30.163s-13.504 30.163-30.163 30.163c0 0 0 0 0 0h-904.947c0 0 0 0 0 0-16.659 0-30.163-13.504-30.163-30.163s13.504-30.163 30.163-30.163c0 0 0 0 0 0zM61.982 86.021h904.947c16.659 0 30.163 13.504 30.163 30.163s-13.504 30.163-30.163 30.163h-904.947c-16.659 0-30.163-13.504-30.163-30.163s13.504-30.163 30.163-30.163zM61.982 417.837h904.947c0 0 0 0 0 0 16.659 0 30.163 13.504 30.163 30.163s-13.504 30.163-30.163 30.163c0 0 0 0 0 0h-904.947c0 0 0 0 0 0-16.659 0-30.163-13.504-30.163-30.163s13.504-30.163 30.163-30.163c0 0 0 0 0 0z" />
<glyph unicode="&#xe90d;" glyph-name="chat" d="M515.53 189.769c4.367 0 8.813 0.267 13.285 0.8 42.89 5.147 79.31 35.125 92.754 76.438 1.013 3.093-0.452 6.4-3.407 7.76-2.929 1.36-6.47 0.187-8.12-2.586-0.16-0.267-17.199-27.791-83.543-36.752-9.93-1.334-19.594-2.028-28.753-2.028-46.483 0.027-67.196 17.55-67.382 17.71-2.343 2.080-5.91 2.133-8.306 0.106-2.423-2.027-2.982-5.547-1.332-8.242 20.234-32.804 56.547-53.206 94.804-53.206zM872.253 600.922c-0.586 0-1.119-0.107-1.677-0.107-38.87 168.291-187.4 293.83-365.481 293.83-182.98 0-334.917-132.474-368.596-307.725-32.746-5.894-57.666-34.672-57.666-69.477v-139.301c0-39.045 31.31-70.703 69.966-70.703 21.805 0 41.053 10.294 53.859 26.11 30.934-81.822 93.922-147.803 173.627-182.61 0.191 0.416 1.7 3.349 3.514 5.686 1.258 1.62 2.66 2.952 3.868 2.952 1.252 0 2.397-0.453 3.381-1.147-18.45 13.736-85.087 84.333-99.516 182.853-6.337 43.367 26.143 85.933 63.975 92.974 60.727 11.309 121.135 24.19 181.862 35.285 38.603 7.041 64.987 28.217 81.12 63.475 3.78 8.242 9.239 24.91 11.742 48.94 0.665 3.574 3.593 6.322 7.348 6.322 2.503 0 4.633-1.28 6.044-3.12l1.677 1.040c23.934-34.752 71.403-111.696 78.218-192.828 7.828-92.76 3.461-156.29-67.542-221.286-0.080-0.080-0.186-0.186-0.293-0.267-0.972-1.037-1.569-2.436-1.57-3.974v0c0-2 1.065-3.707 2.609-4.747 0.585-0.24 1.172-0.56 1.757-0.8 0.479-0.106 0.931-0.267 1.411-0.267s0.906 0.16 1.331 0.267c1.013 0.533 1.97 1.147 2.956 1.68 71.802 39.553 126.885 105.616 152.336 185.067 10.303-15.308 26.436-26.323 45.18-30.164-30.058-136.713-151.991-222.272-303.050-235.26-9.053 22.456-31.336 38.405-57.507 38.405-34.183 0-61.898-27.070-61.898-60.436s27.714-60.408 61.898-60.408c27.555 0 50.638 17.709 58.651 42.032 174.86 14.216 315.030 118.15 344.29 279.64 25.85 10.803 44.007 36.166 44.007 65.77v140.956c-0.002 39.392-32.164 71.344-71.831 71.344zM807.745 560.436c-45.605 123.537-163.785 211.79-302.81 211.79-138.44 0-256.193-87.506-302.224-210.243-2.29 2.8-4.979 5.2-7.615 7.628 26.064 149.568 154.787 263.291 309.999 263.291 154.467 0 282.79-112.602 309.705-261.131-2.662-3.574-5.112-7.309-7.055-11.335zM376.292 150.936l-0.008 0.003c-0.029-0.064-0.030-0.072 0.008-0.003z" />
<glyph unicode="&#xe90e;" glyph-name="circle" d="M652.5 873.5c-1.7 0.7-3.4 1.3-5.2 1.7-2.4 0.8-4.9 1.5-7.3 2.3-15.7-2.1-32-17.2-32-33.4 0-15 10.4-27.6 24.3-31.1l12.2-4.6c-0.1 0-0.2 0.1-0.4 0.2 147-53.9 251.9-195 251.9-360.6 0-212.1-171.9-384-384-384s-384 171.9-384 384c0 165.6 104.9 306.7 251.8 360.6-0.2-0.1-0.3-0.2-0.4-0.2l12.2 4.6c14 3.4 24.3 16 24.3 31.1 0 16.2-16.3 31.4-32 33.4-2.4-0.7-4.9-1.5-7.3-2.3-1.8-0.4-3.6-1-5.2-1.7-178.5-59-307.4-227.2-307.4-425.5 0-247.4 200.6-448 448-448s448 200.6 448 448c0 198.3-128.9 366.5-307.5 425.5zM480 864c0-17.673 14.327-32 32-32s32 14.327 32 32v0c0 17.673-14.327 32-32 32s-32-14.327-32-32v0z" />
<glyph unicode="&#xe90f;" glyph-name="close" d="M544.448 460.8l284.576 284.576c5.558 5.749 8.983 13.59 8.983 22.231 0 17.673-14.327 32-32 32-8.641 0-16.482-3.425-22.24-8.991l-284.567-284.567-284.576 284.576c-5.749 5.558-13.59 8.983-22.231 8.983-17.673 0-32-14.327-32-32 0-8.641 3.425-16.482 8.991-22.24l284.567-284.567-284.576-284.576c-5.558-5.749-8.983-13.59-8.983-22.231 0-17.673 14.327-32 32-32 8.641 0 16.482 3.425 22.24 8.991l284.567 284.567 284.576-284.576c5.78-5.812 13.782-9.409 22.624-9.409s16.844 3.597 22.623 9.408l0.001 0.001c5.789 5.791 9.369 13.789 9.369 22.624s-3.58 16.833-9.369 22.624l-284.576 284.576z" />
<glyph unicode="&#xe910;" glyph-name="close2" d="M332 296.8c-9.6-9.6-9.6-25.6 0-35.2s25.6-9.6 35.2 0l349.6 356c9.6 9.6 9.6 25.6 0 35.2s-25.6 9.6-35.2 0l-349.6-356zM681.6 261.6c9.6-9.6 25.6-9.6 35.2 0s9.6 25.6 0 35.2l-349.6 356c-9.6 9.6-25.6 9.6-35.2 0s-9.6-25.6 0-35.2l349.6-356zM516.8-54.4c-277.6 0-503.2 225.6-503.2 503.2s225.6 504 503.2 504 503.2-225.6 503.2-503.2-225.6-504-503.2-504zM516.8 904.8c-251.2 0-455.2-204.8-455.2-456s204-455.2 455.2-455.2 455.2 204 455.2 455.2-204 456-455.2 456z" />
<glyph unicode="&#xe911;" glyph-name="close3" d="M512.001 886.767c-238.496 0-431.835-193.339-431.835-431.835s193.339-431.835 431.835-431.835 431.835 193.339 431.835 431.835-193.339 431.835-431.835 431.835zM720.691 298.444l-52.201-52.201-156.489 156.489-156.49-156.489-52.2 52.201 156.489 156.489-156.489 156.488 52.16 52.2 156.519-156.5 156.501 156.5 52.201-52.2-156.5-156.497 156.499-156.48z" />
<glyph unicode="&#xe912;" glyph-name="delect" d="M1040.156 493.874l1.732-1.371q-0.854 0.722-1.732 1.371zM-15.476 491.901l3.127 2.477c-3.753-2.611-6.817-5.948-9.040-9.829zM94.492-28.308c-0.278-1.852-0.565-3.692-0.818-5.555 0.521 1.976 0.828 4.248 0.845 6.589zM39.093-24.954q0.3 2.080 0.624 4.161c-0.422-1.762-0.674-3.791-0.697-5.874zM988.065-18.495c0.35-2.176 0.661-4.365 0.974-6.553-0.085 2.627-0.511 5.123-1.235 7.488zM932.425-32.794c-0.241 1.719-0.493 3.427-0.758 5.135 0.134-2.35 0.531-4.552 1.161-6.653zM974.993 789.038h-202.452v48.1c0 58.333-48.1 106.372-106.372 106.372h-315.702c-58.333 0-106.372-48.1-106.372-106.372v-48.1h-192.158c-13.72 0-27.452-10.294-27.452-27.452 0-13.72 10.294-27.452 27.452-27.452h65.199v-679.408c0-58.333 48.1-106.372 106.372-106.372h590.208c58.333 0 106.372 48.1 106.372 106.372v679.408h54.906c13.72 0 27.452 10.294 27.452 27.452-3.439 13.732-10.294 27.452-27.452 27.452zM302.427 837.138c0 27.452 24.051 51.466 51.466 51.466h315.702c27.452 0 51.466-24.051 51.466-51.466v-48.1h-418.636v48.1zM865.193 65.065c0-30.881-17.16-61.761-44.612-61.761h-590.208c-27.452 0-58.333 20.587-58.333 48.1l3.427 682.86h689.713v-669.26zM357.333 164.511c13.72 0 27.452 10.294 27.452 27.452v367.168c-3.427 13.72-10.294 27.452-27.452 27.452s-27.452-10.294-27.452-27.452v-367.168c0-17.147 13.732-27.452 27.452-27.452zM528.905 164.511c13.72 0 27.452 10.294 27.452 27.452v367.168c-3.427 13.72-10.294 27.452-27.452 27.452s-27.465-10.294-27.465-27.452v-367.168c0-17.147 13.745-27.452 27.465-27.452zM700.476 164.511c13.72 0 27.452 10.294 27.452 27.452v367.168c-3.427 13.72-10.294 27.452-27.452 27.452s-27.452-10.294-27.452-27.452v-367.168c0-17.147 13.732-27.452 27.452-27.452z" />
<glyph unicode="&#xe913;" glyph-name="deliver" d="M266.56 328.585c-67.661 0-122.715-55.044-122.715-122.715 0-67.661 55.054-122.715 122.715-122.715s122.715 55.054 122.715 122.715c0 67.671-55.054 122.715-122.715 122.715zM266.56 124.067c-45.107 0-81.803 36.696-81.803 81.803s36.696 81.813 81.803 81.813 81.813-36.706 81.813-81.813-36.706-81.803-81.813-81.803zM798.316 83.16c-67.663 0-122.712 55.049-122.712 122.713s55.049 122.713 122.712 122.713c67.664 0 122.713-55.049 122.713-122.713s-55.049-122.713-122.713-122.713zM798.316 287.681c-45.108 0-81.807-36.699-81.807-81.808s36.699-81.808 81.807-81.808c45.109 0 81.808 36.699 81.808 81.808s-36.699 81.808-81.808 81.808zM593.824 677.328v-451.032h-0.031v449.978zM1023.285 443.431v-237.561c0-11.297-9.148-20.446-20.446-20.446h-40.902c-11.297 0-20.456 9.148-20.456 20.446s9.159 20.456 20.456 20.456h20.446v211.251l-135.977 218.241h-211.702v-449.948c0-11.297-9.159-20.446-20.456-20.446-0.235 0-0.471 0-0.706 0.020h-162.266c-11.277 0-20.425 9.148-20.425 20.425 0 11.287 9.148 20.425 20.425 20.425h142.547v572.714h-552.258v-572.714h51.8c11.277 0 20.425-9.138 20.425-20.425 0-11.277-9.148-20.425-20.425-20.425h-72.225c-11.287 0-20.425 9.148-20.425 20.425v613.564c0 11.277 9.138 20.425 20.425 20.425h593.108c11.277 0 20.425-9.148 20.425-20.425v-122.715h223.091c7.061 0 13.62-3.643 17.355-9.629l145.074-232.843c2.026-3.254 3.090-6.999 3.090-10.816zM818.276 458.75l-90.655-0.205-0.42 108.225h90.767z" />
<glyph unicode="&#xe914;" glyph-name="edit" d="M686.4 736c-6.4 6.4-6.4 16 0 22.4l68 68c6.4 6.4 16 6.4 22.4 0l112.8-112.8c6.4-6.4 6.4-16 0-22.4l-68-68c-6.4-6.4-16-6.4-22.4 0l-112.8 112.8zM384 184l372 372c5.6 5.6 4.8 15.2-1.6 20.8l-112.8 113.6c-6.4 6.4-16 7.2-20.8 1.6l-372.8-372-56-192 192 56zM64 64v-64h896v64h-896z" />
<glyph unicode="&#xe915;" glyph-name="email" horiz-adv-x="1365" d="M1359.351-2.136l-408.15 474.709 408.625 423.363c2.912-8.736 4.933-17.888 4.933-27.515v-841.616c0-10.162-2.199-19.789-5.408-28.941zM817.726 476.436l-135.317-105.96-203.421 159.326-411.062 425.265c8.498 2.437 17.293 4.16 26.564 4.16h1175.957c9.271 0 18.007-1.723 26.505-4.16l-410.824-424.968-68.401-53.663zM5.586-2.136c-3.307 8.585-5.279 18.514-5.407 28.887l-0.001 0.054v841.616c0 9.627 2.021 18.779 4.933 27.515l408.863-423.542-408.388-474.531zM682.409 262.080l200.331 156.889 413.142-479.107c-7.587-2.325-16.321-3.727-25.362-3.862l-0.073-0.001h-1175.957c-8.855 0-17.293 1.605-25.435 3.803l413.38 478.928 199.974-156.652z" />
<glyph unicode="&#xe916;" glyph-name="enter" d="M309.787-39.875c-8.133 0-16.267 3.065-22.529 9.212-12.673 12.442-12.854 32.801-0.414 45.47l429.854 437.74-429.854 437.741c-12.442 12.673-12.257 33.029 0.414 45.47 12.674 12.441 33.029 12.258 45.47-0.414l451.979-460.268c12.284-12.508 12.284-32.548 0-45.056l-451.979-460.267c-6.295-6.412-14.619-9.629-22.945-9.629z" />
<glyph unicode="&#xe917;" glyph-name="evaluate" d="M170.287 317.714h11.195c5.439 0 10.396-2.22 13.999-5.814 3.64-3.656 5.86-8.629 5.86-14.052 0-5.484-2.22-10.454-5.806-14.041-3.651-3.59-8.613-5.809-14.052-5.809h-11.195c-23.024 0-43.904 9.359-59.018 24.474s-24.474 36.002-24.474 59.011v398.099c0 23.024 9.359 43.904 24.474 59.018s35.994 24.474 59.018 24.474h581.733c23.024 0 43.911-9.359 59.026-24.474 15.107-15.107 24.482-35.994 24.482-59.018v-46.427c0-5.452-2.252-10.424-5.839-14.012-3.573-3.618-8.544-5.839-14.027-5.839-5.455 0-10.401 2.228-14.004 5.809-3.635 3.587-5.854 8.557-5.854 14.041v46.427c0 12.085-4.904 23.041-12.796 30.925-7.971 7.926-18.923 12.841-30.987 12.841h-581.734c-12.064 0-23.016-4.917-30.942-12.841-7.939-7.886-12.839-18.84-12.839-30.925v-398.1c0-12.085 4.901-23.024 12.802-30.925 7.971-7.921 18.923-12.841 30.98-12.841zM282.44 687.697h580.059c18.355 0 35.246-6.593 48.413-17.54 13.356-11.105 22.835-26.718 26.099-44.484l0.219-1.186v-421.598l-0.219-1.194c-3.264-17.767-12.743-33.38-26.099-44.484-13.167-10.947-30.057-17.54-48.413-17.54h-181.416l-71.605-71.605c-4.887-4.834-10.582-8.618-16.807-11.195-6.231-2.575-12.933-3.936-19.739-3.936-6.859 0-13.567 1.362-19.784 3.936-6.246 2.606-11.957 6.391-16.762 11.195l-71.594 71.605h-182.353c-20.887 0-39.848 8.499-53.579 22.222-13.732 13.69-22.222 32.655-22.222 53.596v396.392c0 20.941 8.49 39.909 22.201 53.617 13.752 13.702 32.713 22.201 53.6 22.201v0zM887.993 189.956c6.534 6.555 10.59 15.592 10.59 25.531v396.392c0 9.942-4.056 18.968-10.59 25.503-6.497 6.55-15.523 10.59-25.495 10.59h-580.059c-9.94 0-18.968-4.056-25.503-10.59s-10.59-15.569-10.59-25.503v-396.392c0-9.94 4.056-18.976 10.59-25.511 6.534-6.532 15.562-10.59 25.503-10.59h198.758l83.277-83.22c1.101-1.148 2.447-2.038 3.882-2.628 1.367-0.583 2.929-0.877 4.575-0.877 1.639 0 3.203 0.309 4.578 0.877 1.391 0.548 2.696 1.45 3.874 2.628l83.282 83.22h197.831c9.974 0.001 19 4.043 25.497 10.57zM715.929 413.68c0-12.532 5.16-24.988 14.019-33.849 8.861-8.869 21.319-14.027 33.849-14.027 12.541 0 24.996 5.16 33.857 14.027 8.861 8.861 14.019 21.316 14.019 33.849 0 12.539-5.16 24.988-14.019 33.857-8.861 8.861-21.316 14.020-33.857 14.020-12.53 0-24.988-5.16-33.849-14.020-8.86-8.868-14.019-21.319-14.019-33.857zM524.051 413.68c0-12.532 5.16-24.988 14.019-33.849 8.861-8.869 21.319-14.027 33.849-14.027 12.541 0 24.996 5.16 33.857 14.027 8.861 8.861 14.019 21.316 14.019 33.849 0 12.539-5.16 24.988-14.019 33.857-8.861 8.861-21.316 14.020-33.857 14.020-12.53 0-24.988-5.16-33.849-14.020-8.86-8.868-14.019-21.319-14.019-33.857zM332.174 413.68c0-12.532 5.162-24.988 14.022-33.849 8.861-8.869 21.316-14.027 33.849-14.027 12.539 0 24.993 5.16 33.857 14.027 8.861 8.861 14.020 21.316 14.020 33.849 0 12.539-5.16 24.988-14.020 33.857-8.863 8.861-21.319 14.020-33.857 14.020-12.532 0-24.988-5.16-33.849-14.020-8.861-8.868-14.022-21.319-14.022-33.857z" />
<glyph unicode="&#xe918;" glyph-name="ewm" d="M852.48 221.056h-113.536v-113.536h113.536v113.536zM682.24 618.24h-113.536v-113.536h113.536v113.536zM766.848 703.872v-85.632h142.336v226.945h-226.945v-141.312h84.608zM1022.72 504.704v113.536h-113.536v-113.536h113.536zM682.239 958.72h-113.536v-113.536h113.536v113.536zM1022.72 958.72h-113.536v-113.536h113.536v113.536zM1022.72 391.296h-454.016v-454.016h454.016v454.016zM937.088 22.912h-283.776v283.776h283.776v-283.776zM341.761 50.816v-113.536h113.536v227.072h-226.945v113.409h-113.536v-226.945h226.945zM455.296 391.296h-226.945v-113.536h226.945v113.536zM1.28-62.72h113.536v113.536h-113.536v-113.536zM455.296 958.72h-454.016v-454.016h454.016v454.016zM369.664 590.336h-283.776v283.776h283.776v-283.776zM1.28 391.296v-113.536h113.536v113.536h-113.536zM285.056 788.48h-113.536v-113.536h113.536v113.536z" />
<glyph unicode="&#xe919;" glyph-name="eye" d="M512 710.4c-352 0-512-262.4-512-262.4s153.6-268.8 512-268.8c345.6 0 512 268.8 512 268.8s-166.4 262.4-512 262.4zM512 243.2c-115.2 0-204.8 89.6-204.8 204.8s89.6 204.8 204.8 204.8c115.2 0 204.8-89.6 204.8-204.8s-89.6-204.8-204.8-204.8zM512 588.8c-76.8 0-140.8-64-140.8-140.8s64-140.8 140.8-140.8c76.8 0 140.8 64 140.8 140.8s-64 140.8-140.8 140.8z" />
<glyph unicode="&#xe91a;" glyph-name="female" d="M512 960c-282.768 0-512-229.232-512-512s229.232-512 512-512c282.768 0 512 229.232 512 512s-229.232 512-512 512zM512-22.672c-0.15 0-0.327 0-0.504 0-113.125 0-216.704 40.871-296.777 108.652l0.673-0.555c8.931 4.242 21.717 9.523 34.725 14.35l3.995 1.298c91.472 33.328 130.32 62.752 143.888 109.456-149.248 30.8-164.416 118.8-164.416 118.8s77.328 50.416 77.328 179.76 24.32 247.728 201.088 247.728c176.8 0 201.072-118.4 201.072-247.728 0-129.344 77.344-179.76 77.344-179.76s-15.168-88-164.416-118.8c13.568-46.704 52.432-76.128 143.872-109.44 14.32-5.232 27.104-10.464 38.72-15.68-79.396-67.216-182.968-108.080-296.085-108.080-0.178 0-0.356 0-0.535 0h0.027z" />
<glyph unicode="&#xe91b;" glyph-name="flag" d="M787.779 290.896c-79.117 0-149.192 36.168-165.015 42.949-13.563 4.521-92.68 36.168-155.974 36.168-56.512 0-133.369-27.126-158.234-36.168-11.302-4.521-27.126-4.521-36.168 4.521-11.302 6.781-18.084 20.344-18.084 33.907v508.609c0 15.823 9.042 29.386 24.865 36.168 4.521 2.26 106.243 42.949 192.141 42.949s180.839-40.689 185.36-42.949c2.26 0 2.26-2.26 4.521-2.26 0 0 58.773-33.907 124.327-33.907s119.806 33.907 122.066 33.907c11.302 6.781 27.126 6.781 40.689 0 9.042-6.781 15.823-20.344 15.823-33.907v-513.13c0-13.563-6.781-24.865-18.084-33.907-2.26 0-70.075-42.949-158.234-42.949zM466.79 446.87c85.898 0 183.099-40.689 187.62-42.949 2.26 0 2.26-2.26 4.521-2.26 0 0 61.033-33.907 126.587-33.907 42.949 0 79.117 13.563 99.461 22.605v429.492c-27.126-9.042-63.294-18.084-101.722-18.084-79.117 0-146.932 36.168-160.494 42.949-11.302 4.521-85.898 36.168-151.453 36.168-47.47 0-106.243-15.823-137.89-27.126v-429.492c38.428 11.302 88.159 22.605 133.369 22.605zM570.773-64h-434.013v985.572c0 22.605 18.084 38.428 38.428 38.428s38.428-18.084 38.428-38.428v-906.455h354.896c22.605 0 38.428-18.084 38.428-38.428 2.26-22.605-13.563-40.689-36.168-40.689zM177.448-64h-79.117c-22.605 0-38.428 18.084-38.428 38.428 0 22.605 18.084 38.428 38.428 38.428h76.857c22.605 0 38.428-18.084 38.428-38.428 2.26-20.344-15.823-38.428-36.168-38.428z" />
<glyph unicode="&#xe91c;" glyph-name="fly" d="M441.822 14.097l120.422 164.659-120.422 34.679v-199.339zM16.111 401.579l342.426-103.765 421.615 357.99-326.861-385.57 365.909-113.050 188.416 724.446-991.505-480.051z" />
<glyph unicode="&#xe91d;" glyph-name="fold" d="M974.712 215.735c-8.133 0-16.267 3.065-22.529 9.212l-437.74 429.856-437.74-429.855c-12.673-12.442-33.027-12.258-45.47 0.415s-12.257 33.027 0.414 45.47l460.268 451.978c12.507 12.284 32.548 12.284 45.055 0l460.268-451.978c12.674-12.442 12.854-32.801 0.415-45.47-6.295-6.412-14.619-9.629-22.945-9.629z" />
<glyph unicode="&#xe91e;" glyph-name="follow" d="M464.464 925.206c-129.215-3.174-236.217-132.895-231.646-280.979 2.708-89.274 45.949-169.745 108.227-217.599 37.275-28.559 81.321-45.526 127.691-45.694 47.175-0.255 91.898 16.753 129.508 45.523 65.495 49.844 109.837 135.181 108.949 228.897-1.439 149.565-112.503 273.023-242.732 269.852zM530.72 309.347c-19.886-6.517-40.575-10.367-62.026-10.324-46.371 0.255-90.416 17.179-127.691 45.738-61.181-21.874-326.845-149.903-326.845-169.407v-143.518c0-21.365 16.459-27.882 36.767-27.882h538.307c-49.12 51.069-79.584 120.794-79.584 197.756 0.042 38.080 7.614 74.339 21.071 107.638zM788.219 427.898c-122.234 0-221.577-101.415-221.577-226.231 0-124.687 99.383-226.189 221.577-226.189 122.19 0 221.616 101.46 221.616 226.189 0.045 124.814-99.385 226.231-221.616 226.231zM785.89 85.778l-20.69-25.428-113.177 121.981 41.631 38.715 68.711-74.001 138.435 170.508 44.172-35.921-159.084-195.853z" />
<glyph unicode="&#xe91f;" glyph-name="gong" d="M975.193 475.417c0 255.413-207.781 463.194-463.194 463.194-255.141 0-461.519-205.007-463.184-460.142-0.804-123.338 47.209-235.421 125.367-318.956v-168.551c0-18.362 14.851-33.264 33.213-33.326l71.961-0.245 77.020 0.245c18.364 0.058 33.218 14.96 33.219 33.324l0.003 38.182c39.062-10.734 79.975-16.946 122.399-16.946 41.803 0 82.129 6.071 120.677 16.5l0.003-38.368c0.001-18.015 14.576-32.633 32.59-32.69l77.646-0.249 72.596 0.246c18.013 0.062 32.582 14.681 32.582 32.693v167.29c78.551 83.037 127.101 194.745 127.1 317.797zM303.081 13.668h-44.031c-18.404 0-33.327 14.921-33.327 33.327v64.986c33.522-26.465 70.629-48.507 110.685-64.986 0-18.405-14.922-33.327-33.327-33.327zM796.554 46.361c0-18.055-14.638-32.694-32.694-32.694h-45.299c-18.055 0-32.693 14.638-32.693 32.694 40.023 16.278 77.131 38.090 110.688 64.331v-64.331zM511.999 66.573c-225.41 0-408.817 183.408-408.817 408.845 0 225.411 183.409 408.819 408.819 408.819s408.817-183.409 408.817-408.819c0-225.438-183.408-408.845-408.819-408.845zM551.619 339.943c-18.527 5.988-35.238 13.733-53.182 22.7-19.105-38.214-79.41-109.27-124.17-136.734 25.069-6.576 45.993-19.725 51.365-31.061 94.893 106.294 113.415 124.204 122.422 128.383 17.875 7.771 17.295 12.53 3.563 16.711zM397.522 724.5c-17.879 3.597-39.966 11.337-59.719 20.922-4.731-32.255-19.694-90.197-34.59-126.015-21.505-51.95-66.7-122.72-95.328-154.945 16.711-11.371 34.441-12.237 42.799-25.969 19.691 28.047 34.003 48.937 52.53 84.788v-195.874c0-42.977-2.981-94.345-6.606-128.38h53.76v425.169c18.527 37.604 40.612 75.235 47.803 82.394 12.502 12.533 11.919 15.515-0.646 17.908zM648.909 359.051l-40.549-30.444c34.59-31.058 80.577-87.183 106.877-125.985l47.735 40.612c-39.379 45.958-69.824 75.818-114.063 115.817zM659.662 564.479c35.233-0.614 63.931-2.981 87.831-5.376v52.563c-24.485-2.4-52.597-4.795-87.831-5.378v88.351c0 19.725 2.395 31.058 8.352 34.655 8.421 4.761 7.773 9.555-2.332 9.555-22.15 0-35.882 0.58-53.76 3.559 1.814-13.115 2.395-41.777 2.395-93.14v-42.977h-85.436v87.767c0 19.691 2.4 31.062 8.421 34.621 8.357 4.795 7.71 9.555-2.395 9.555-22.089-0.585-36.469 0.618-54.345 3.597 1.747-13.733 2.395-30.444 2.395-93.147v-42.394c-28.695 1.166-53.178 2.981-78.246 5.378v-52.563c25.069 2.395 48.97 4.178 78.246 4.761v-133.757c-37.050 0.614-66.329 2.395-92.562 5.376v-54.31c44.175 4.178 106.294 5.957 188.103 5.957s144.508-1.781 188.684-5.957v54.31c-31.091-3.559-62.699-5.376-107.522-5.376v134.372zM614.318 430.107h-85.436v134.372h85.436v-134.372z" />
<glyph unicode="&#xe920;" glyph-name="gotop" d="M819.2 396.8l-307.2 312.32-307.2-312.32v97.28l307.2 312.32 307.2-312.32v-97.28zM460.8 755.2h102.4v-358.4h-102.4zM460.8 345.6h102.4v-102.4h-102.4zM460.8 192h102.4v-102.4h-102.4z" />
<glyph unicode="&#xe921;" glyph-name="home" d="M981.917 439.262l-139.325 158.986c-4.485 5.536-11.284 9.046-18.903 9.046-13.405 0-24.272-10.867-24.272-24.272 0-6.531 2.579-12.459 6.774-16.822l139.317-158.977c20.631-24.272 24.272-39.807 21.603-43.933s-6.796-4.854-18.69-4.854h-93.45c-0.801 0.093-1.729 0.147-2.67 0.147s-1.87-0.053-2.782-0.158c-0.689 0.105-1.618 0.158-2.559 0.158s-1.87-0.053-2.782-0.158c0.112 0.011 0.112 0.011 0.112 0.011-13.405 0-24.272-10.867-24.272-24.272 0 0 0 0 0 0v-252.192c0.002-0.17 0.003-0.369 0.003-0.569 0-28.018-22.713-50.73-50.73-50.73-1.026 0-2.045 0.031-3.055 0.091l-98.407 4.606v235.687c-0.138 48.204-39.178 87.244-87.369 87.381h-135.939c0 0 0 0 0 0-48.308 0-87.486-39.093-87.623-87.367v-242.739h-105.343c-29.795 0.764-53.814 24.458-55.097 54.048l-4.129 250.815c-0.295 10.406-7.097 19.148-16.466 22.324-3.321 1.814-7.223 2.891-11.377 2.926l-91.092-0.006c-11.165 0-16.020 2.67-16.748 4.127s0 20.631 22.331 45.147l374.041 430.595c13.698 18.046 35.163 29.581 59.323 29.581 20.781 0 39.566-8.533 53.047-22.287l71.374-82.053c4.485-5.474 11.246-8.94 18.817-8.94 13.405 0 24.272 10.867 24.272 24.272 0 6.362-2.447 12.151-6.451 16.48l-71.346 82.026c-21.014 24.716-52.134 40.292-86.892 40.292-0.001 0-0.003 0-0.004 0-40.322-1.194-75.953-20.286-99.378-49.567l-373.452-428.602c-31.312-35.923-41.748-70.39-29.855-97.090 10.226-19.71 30.479-32.944 53.823-32.944 2.503 0 4.97 0.153 7.392 0.447l69.372-0.029 4.854-228.162c1.221-57.073 47.648-102.902 104.839-103.158h121.381c10.24 0.031 18.985 6.399 22.523 15.385 5.493 4.588 8.961 11.267 9.034 18.759l-0.002 258.097c0.138 21.477 17.581 38.836 39.078 38.836 0 0 0 0 0.001 0h135.926c21.394-0.137 38.701-17.443 38.836-38.825v-255.117c0.11-4.166 1.252-8.043 3.181-11.414 2.939-8.857 11.441-15.546 21.57-16.028l119.914-5.813h5.098c0.073 0 0.158 0 0.243 0 54.829 0 99.275 44.447 99.275 99.275 0 0.171 0 0.341-0.001 0.512v227.651h80.099c2.284-0.298 4.926-0.467 7.607-0.467 23.941 0 44.719 13.539 55.095 33.378 11.813 27.043 1.377 61.024-29.693 96.462zM709.579 687.328c0-20.108 16.301-36.409 36.409-36.409s36.409 16.301 36.409 36.409c0 20.108-16.301 36.409-36.409 36.409s-36.409-16.301-36.409-36.409z" />
<glyph unicode="&#xe922;" glyph-name="home_fill" d="M988.929 512.647l-385.78 376.105c-23.973 23.35-56.012 36.201-90.356 36.201-34.341 0-66.388-12.85-90.361-36.201l-385.777-376.105c-39.81-38.821-34.683-72.377-28.103-86.393 4.69-9.946 20.525-37.281 66.141-37.281h56.541v-289.332c0-65.689 50.366-127.539 121.941-127.539h164.227v306.196c0 32.83-5.31 51.121 30.494 51.121h129.791c35.803 0 30.491-18.291 30.491-51.121v-306.197h164.228c71.573 0 121.941 61.851 121.941 127.539v289.333h56.544c45.615 0 61.45 27.337 66.139 37.281 6.582 14.018 11.707 47.571-28.102 86.393v0z" />
<glyph unicode="&#xe923;" glyph-name="home2" d="M983.040 454.827l-450.56 464.213c-6.827 6.827-13.653 6.827-20.48 6.827s-13.653 0-20.48-6.827l-450.56-464.213c-6.827-13.653-6.827-34.133 0-40.96v0c13.653-13.653 27.307-6.827 40.96 0l430.080 443.733 430.080-443.733c13.653-13.653 27.307-13.653 40.96 0v0c6.827 6.827 6.827 27.307 0 40.96zM846.507 393.387c-20.48 0-34.133-27.307-34.133-27.307v-307.2c0-20.48-20.48-40.96-40.96-40.96h-518.827c-20.48 0-40.96 20.48-40.96 40.96 0 0 0 279.893 0 307.2 0 13.653 0 34.133-27.307 27.307-13.653 0-27.307-27.307-27.307-27.307v-327.68c0-34.133 27.307-68.267 68.267-68.267h573.44c34.133 0 68.267 27.307 68.267 68.267 0 0 0 238.933 0 327.68 0 13.653 0 27.307-20.48 27.307z" />
<glyph unicode="&#xe924;" glyph-name="key" horiz-adv-x="1025" d="M939.577 875.59c-112.546 112.543-295.039 112.543-407.592 0-84.153-84.156-105.34-207.403-63.64-311.282-2.033-1.267-3.974-2.713-5.707-4.457l-439.985-439.986c-12.454-12.46-22.64-37.040-22.64-54.66v-97.246c0-17.607 14.413-31.993 32.027-31.96l97.38 0.173c17.613 0.033 32.027 14.46 32.027 32.066v93.62c0 17.62 14.407 32.020 32.020 32.020h93.607c17.607 0 32.040 14.42 32.073 32.027l0.153 93.866c0.033 17.607 14.467 32.020 32.073 32.020h93.613c17.62 0 42.22 10.18 54.666 22.64l124.18 124.2c1.753 1.74 3.193 3.673 4.44 5.68 103.893-41.686 227.139-20.5 311.292 63.653 112.553 112.572 112.553 295.075 0.013 407.624zM905.617 683.114c-43.766-43.76-114.74-43.76-158.506 0-43.753 43.76-43.753 114.74 0 158.499 43.766 43.757 114.74 43.757 158.506 0 43.766-43.76 43.766-114.74 0-158.499z" />
<glyph unicode="&#xe925;" glyph-name="like" d="M288.768 912.896c-152.576 0-276.992-136.192-276.992-304.128 0-100.352 45.056-171.52 81.92-228.864 107.008-167.936 376.832-377.344 388.096-386.048 9.216-7.168 19.456-10.752 30.72-10.752s21.504 3.584 30.72 10.752c11.264 8.704 281.088 218.112 388.096 386.048 36.352 57.344 81.92 128 81.92 228.864 0 167.424-124.416 304.128-276.992 304.128-83.968 0-162.304-40.96-215.040-112.64l-8.192-11.264-8.192 11.264c-53.76 71.168-132.608 112.64-216.064 112.64zM512 30.208l-6.144 4.608c-2.56 2.048-274.944 213.504-377.344 374.272-41.472 65.536-73.216 121.344-73.216 199.68 0 140.288 104.96 254.464 233.472 254.464 89.6 0 172.032-56.832 210.944-144.896h1.024l2.048-7.168c1.536-5.12 5.12-8.192 9.216-8.192s7.68 3.072 9.216 8.192l2.048 7.168h1.024c38.912 88.064 120.832 144.896 210.944 144.896 129.024 0 233.472-114.176 233.472-254.464 0-78.336-31.744-134.144-73.216-199.68-102.912-161.28-374.784-372.224-377.344-374.272l-6.144-4.608z" />
<glyph unicode="&#xe926;" glyph-name="list" d="M416 768v-224h-224v224h224zM464 832h-320c-8.8 0-16-7.2-16-16v-320c0-8.8 7.2-16 16-16h320c8.8 0 16 7.2 16 16v320c0 8.8-7.2 16-16 16zM416 352v-224h-224v224h224zM464 416h-320c-8.8 0-16-7.2-16-16v-320c0-8.8 7.2-16 16-16h320c8.8 0 16 7.2 16 16v320c0 8.8-7.2 16-16 16zM832 768v-224h-224v224h224zM880 832h-320c-8.8 0-16-7.2-16-16v-320c0-8.8 7.2-16 16-16h320c8.8 0 16 7.2 16 16v320c0 8.8-7.2 16-16 16zM832 352v-224h-224v224h224zM880 416h-320c-8.8 0-16-7.2-16-16v-320c0-8.8 7.2-16 16-16h320c8.8 0 16 7.2 16 16v320c0 8.8-7.2 16-16 16z" />
<glyph unicode="&#xe927;" glyph-name="list2" d="M149.461 384h213.077c11.861 0 21.461-9.6 21.461-21.461v-213.077c0-11.861-9.6-21.461-21.461-21.461h-213.077c-11.861 0-21.461 9.6-21.461 21.461v213.077c0 11.861 9.6 21.461 21.461 21.461zM85.333 149.461c0-0.006 0-0.014 0-0.021 0-35.405 28.702-64.107 64.107-64.107 0.007 0 0.015 0 0.022 0h213.076c0.006 0 0.014 0 0.021 0 35.405 0 64.107 28.702 64.107 64.107 0 0.007 0 0.015 0 0.022v-0.001 213.077c0 0.006 0 0.014 0 0.021 0 35.405-28.702 64.107-64.107 64.107-0.007 0-0.015 0-0.022 0h-213.076c-0.006 0-0.014 0-0.021 0-35.405 0-64.107-28.702-64.107-64.107 0-0.007 0-0.015 0-0.022v0.001-213.077zM85.333 533.461c0-0.006 0-0.014 0-0.021 0-35.405 28.702-64.107 64.107-64.107 0.007 0 0.015 0 0.022 0h213.076c0.006 0 0.014 0 0.021 0 35.405 0 64.107 28.702 64.107 64.107 0 0.007 0 0.015 0 0.022v-0.001 213.077c0 0.006 0 0.014 0 0.021 0 35.405-28.702 64.107-64.107 64.107-0.007 0-0.015 0-0.022 0h-213.076c-0.006 0-0.014 0-0.021 0-35.405 0-64.107-28.702-64.107-64.107 0-0.007 0-0.015 0-0.022v0.001-213.077zM149.461 768h213.077c11.861 0 21.461-9.6 21.461-21.461v-213.077c0-11.861-9.6-21.461-21.461-21.461h-213.077c-11.861 0-21.461 9.6-21.461 21.461v213.077c0 11.861 9.6 21.461 21.461 21.461zM917.504 704c11.782 0 21.333 9.551 21.333 21.333s-9.551 21.333-21.333 21.333v0h-426.667c-11.782 0-21.333-9.551-21.333-21.333s9.551-21.333 21.333-21.333v0h426.667zM917.504 320c11.782 0 21.333 9.551 21.333 21.333s-9.551 21.333-21.333 21.333v0h-426.667c-11.782 0-21.333-9.551-21.333-21.333s9.551-21.333 21.333-21.333v0h426.667zM917.504 533.333c11.782 0 21.333 9.551 21.333 21.333s-9.551 21.333-21.333 21.333v0h-426.667c-11.782 0-21.333-9.551-21.333-21.333s9.551-21.333 21.333-21.333v0h426.667zM917.504 149.333c11.782 0 21.333 9.551 21.333 21.333s-9.551 21.333-21.333 21.333v0h-426.667c-11.782 0-21.333-9.551-21.333-21.333s9.551-21.333 21.333-21.333v0h426.667z" />
<glyph unicode="&#xe928;" glyph-name="location" d="M817.34 413.463c29.074 50.316 43.836 107.683 43.836 166.090 0 190.029-156.366 344.618-348.513 344.618-192.234 0-348.579-154.589-348.579-344.618 0-58.048 13.547-115.666 43.408-165.138 67.965-112.598 301.719-439.982 301.719-439.982s239.684 320.582 308.129 439.030zM249.832 427.697c-28.405 45.223-41.869 98.236-41.869 151.857 0 166.092 136.719 301.232 304.701 301.232 167.934 0 304.634-135.14 304.634-301.232 0-51.842-13.602-102.568-39.383-147.257-59.719-103.512-266.691-377.511-266.691-377.511s-201.834 278.091-261.392 372.911zM512.664 765.006c-88.36 0-160.224-71.013-160.224-158.4 0-87.347 71.864-158.401 160.224-158.401 88.314 0 160.18 71.053 160.18 158.401 0.001 87.385-71.865 158.4-160.18 158.4zM512.664 491.592c-64.193 0-116.343 51.586-116.343 115.014s52.15 115.016 116.343 115.016c64.105 0 116.297-51.588 116.297-115.016 0.001-63.43-52.192-115.014-116.297-115.014z" />
<glyph unicode="&#xe929;" glyph-name="logo" d="M545.624-7.69c-251.675 0-456.189 203.491-456.189 455.165 0 251.16 204.005 455.165 456.189 455.165 251.67 0 456.189-203.491 456.189-455.165 0 275.762-223.996 499.758-500.782 499.758s-500.787-223.996-500.787-499.758 223.996-499.753 500.782-499.753 500.782 223.991 500.782 499.753c0.005-251.155-204-455.165-456.184-455.165zM983.87 466.952c-8.197 37.419-12.818 74.324-24.092 108.666-73.305 217.842-301.392 331.633-517.701 253.723-152.23-54.848-238.857-169.148-264.482-328.561-3.077-19.991 1.024-41.515-31.78-36.395 0-19.991 0-37.929 0-56.896 9.741-0.509 17.938-1.024 28.193-2.048 39.982-259.362 245.521-360.336 392.121-363.922 87.137-2.048 167.605 21.524 238.862 71.751 101.488 71.252 157.869 170.697 173.759 294.219 17.423 0 32.289 0 46.64 0 0 20.505 0 38.958 0 59.458-15.895 0.005-29.727 0.005-41.52 0.005zM927.999 593.046c-36.395-25.631-77.396-30.241-118.916-36.395-7.693-1.024-14.866 3.592-16.914 11.274-12.303 43.059-24.092 84.060-35.881 126.609l81.497 30.241c38.958-34.857 68.69-79.449 90.214-131.729zM779.356 465.928c-62.021 0-120.964 0-180.428 0 0 17.423 0 35.876 0 53.819 57.92 3.077 113.282 5.64 172.231 8.712 2.557-18.452 5.12-38.438 8.197-62.53zM821.386 740.156c-28.703-9.226-52.795-16.914-73.295-23.577-28.708 35.881-55.362 69.199-82.017 102.517 55.357-12.818 105.080-38.448 155.312-78.94zM598.418 820.114c58.944-13.327 91.752-54.333 120.964-107.637-43.054-2.563-80.983-5.125-120.964-7.688 0 38.953 0 75.858 0 115.325zM597.899 683.77c40.496 2.563 79.959 5.125 119.431 6.664 5.125 0 14.346-3.587 15.89-7.173 12.298-36.395 23.063-73.3 35.361-113.791 3.077-9.741-4.101-19.991-14.866-19.991h-134.806c-11.784 0-21.524 9.736-21.524 21.529v112.762h0.515zM550.744 549.478h-143.518c-11.274 0-19.476 11.274-15.89 22.039 12.303 39.467 23.068 75.348 34.857 110.714 1.539 4.611 10.765 8.712 16.404 8.712 42.030-1.539 84.060-4.101 128.143-6.664v-115.33c-0.515-10.76-9.226-19.471-19.996-19.471zM570.225 520.261c0-17.423 0-34.342 0-54.843-60.482 0-122.503 0-187.601 0 2.048 22.039 3.592 42.544 5.125 63.559 60.482-3.077 120.455-5.64 182.476-8.717zM440.544 712.987c30.246 55.872 66.636 97.387 130.196 109.176 0-39.467 0-76.887 0-117.378-42.544 3.077-84.065 5.64-130.196 8.202zM492.824 820.114c-22.553-30.241-46.131-62.535-70.223-94.315-3.077-3.587-11.789-5.635-16.914-4.611-21.529 5.125-42.030 11.789-69.714 19.476 51.261 43.568 103.032 67.146 156.85 79.449zM360.071 464.389c-54.333 0-108.152 0-165.562 0 7.178 36.395 13.842 70.738 19.476 99.955 46.131-11.274 89.699-22.039 133.273-32.804 9.226-2.563 15.89-10.765 15.375-20.505-0.515-14.866-1.539-30.241-2.563-46.645zM354.941 556.651c-44.078 4.101-88.161 10.25-135.321 38.953 31.265 61.511 60.482 101.488 93.8 133.268 35.366-13.327 63.045-23.577 88.675-33.318-10.25-42.544-20.5-85.089-32.289-127.633-0.509-5.115-9.736-11.779-14.866-11.269zM719.383 188.627c-5.64 0.52-13.327 8.197-14.866 14.346-10.25 31.275-18.967 63.564-29.732 100.469-5.125-9.226-8.712-14.346-11.274-19.471-12.818-27.174-25.631-54.848-37.419-82.526-4.101-9.741-10.255-12.298-20.5-14.356-42.030-8.197-68.17 6.159-80.478 48.699-6.659 22.039-19.986 42.030-34.337 62.535-6.664-25.631-13.842-51.771-20.5-77.401-11.789-43.054-1.539-34.337-44.592-35.881-17.938-0.509-35.881 0-53.819 0-1.024 0-2.563 0.52-5.125 1.544 8.202 32.289 16.399 64.588 25.116 97.382 8.202 31.275 16.914 63.055 24.607 94.32 2.563 10.25 7.178 14.346 17.938 13.842 22.039 0 44.592-0.52 66.636 1.024 13.837 1.024 21.015-5.125 26.655-16.914 17.423-37.929 36.39-75.353 56.381-117.383 14.861 32.299 31.27 59.463 40.491 88.675 12.298 40.496 35.881 52.795 76.887 49.203 43.573-4.101 43.573-1.024 55.872-43.563 15.375-53.314 30.241-106.099 47.155-164.538-30.761-1.029-57.93-1.549-85.094-0.005zM797.808 467.466c0 21.529 0 41.515 0 60.997 46.64 11.789 92.262 24.092 141.984 36.905 6.149-29.217 12.813-62.021 19.991-97.387-55.367-0.515-107.642-0.515-161.975-0.515z" />
<glyph unicode="&#xe92a;" glyph-name="male" d="M511.856 960c-282.566-0.164-511.568-229.267-511.568-511.856 0-282.69 229.166-511.856 511.856-511.856s511.856 229.166 511.856 511.856v0c0 282.69-229.166 511.856-511.856 511.856-0.101 0-0.202 0-0.303 0h0.015zM511.856-13.507c-100.357 0.251-193.094 32.666-268.502 87.475l1.322-0.915c119.451 44.145 148.305 82.231 148.305 162.732 0 49.050-28.854 32.892-44.434 122.337-6.925 37.22-40.106 0-46.743 86.56 0 33.758 18.178 42.126 18.178 42.126s-4.328 24.236-8.367 51.935c-12.407 75.307-13.85 166.483 90.31 208.609s175.139 10.676 188.7-10.676h3.174c0.81 0.020 1.763 0.032 2.719 0.032 32.996 0 62.758-13.846 83.792-36.046l0.049-0.052c44.722-51.936 28.853-180.044 22.793-214.957 0 0 18.178-8.367 18.178-42.125-6.348-84.829-39.817-48.185-46.742-86.56-16.447-89.445-44.434-73.575-44.434-122.337 0-80.212 28.853-118.299 148.305-162.732-74.038-53.385-166.581-85.389-266.599-85.406h-0.004z" />
<glyph unicode="&#xe92b;" glyph-name="more" d="M288 503.136c-9.148 5.52-20.184 8.807-31.984 8.864h-0.016c-35.346 0-64-28.654-64-64s28.654-64 64-64v0c11.712 0 22.56 3.392 32 8.896 19.040 11.072 32 31.488 32 55.104 0 23.648-12.96 44.064-32 55.136zM544 503.136c-9.148 5.52-20.184 8.807-31.984 8.864h-0.016c-11.712 0-22.56-3.36-32-8.864-19.040-11.072-32-31.488-32-55.136 0-23.616 12.96-44.032 32-55.104 9.44-5.504 20.288-8.896 32-8.896s22.56 3.392 32 8.896c19.040 11.072 32 31.488 32 55.104 0 23.648-12.96 44.064-32 55.136zM768 512c-11.712 0-22.56-3.392-32-8.864-19.040-11.104-32-31.52-32-55.136s12.96-44.032 32-55.136c9.44-5.472 20.288-8.864 32-8.864 35.346 0 64 28.654 64 64s-28.654 64-64 64v0z" />
<glyph unicode="&#xe92c;" glyph-name="msg" d="M285.6 404.8c-41.6 0-76 34.4-76 77.6s34.4 77.6 76 77.6 76-34.4 76-77.6-33.6-77.6-76-77.6zM512.8 404.8c-41.6 0-76 34.4-76 77.6s34.4 77.6 76 77.6 76-34.4 76-77.6-34.4-77.6-76-77.6zM739.2 404.8c-41.6 0-76 34.4-76 77.6s34.4 77.6 76 77.6 76-34.4 76-77.6-34.4-77.6-76-77.6zM307.2 34.4c-5.6 0-12 1.6-17.6 4-12.8 5.6-21.6 17.6-24 31.2l-20 123.2 42.4 9.6 20.8-122.4 132.8 77.6 2.4-45.6-115.2-72c-6.4-3.2-14.4-5.6-21.6-5.6zM512 902.4c-272 0-493.6-177.6-493.6-396.8 0-156 112.8-292 276.8-356l-7.2 52.8c-133.6 60.8-223.2 174.4-223.2 303.2 0 193.6 200.8 350.4 447.2 350.4s447.2-156.8 447.2-350.4c0-193.6-200.8-350.4-447.2-350.4-13.6 0-57.6 2.4-70.4 3.2l-40.8-39.2c36-6.4 73.6-10.4 111.2-10.4 272 0 493.6 177.6 493.6 396.8s-221.6 396.8-493.6 396.8z" />
<glyph unicode="&#xe92d;" glyph-name="no-delivery" d="M920.526 188.172v619.58c0 10.694-8.668 19.362-19.362 19.362h-522.77c-10.694 0-19.362-8.668-19.362-19.362v-126.497c0 0 0-11.709-12.030-16.549l-242.698-129.92v-327.252c0-10.694-8.67-19.362-19.362-19.362-10.694 0-19.362 8.668-19.362 19.362v312.609c0 10.694-0.643 30.017 5.803 38.211 1.996 2.539 13.698 10.697 22.376 14.67l226.55 121.275v132.815c0 21.387 17.337 38.724 38.724 38.724h561.494c21.387 0 38.724-17.337 38.724-38.724v-600.217c-0.001-21.388-17.338-38.725-38.725-38.725zM339.671 575.41c10.694 0 19.362-8.668 19.362-19.362v-135.533c0-10.694-8.668-19.362-19.362-19.362h-135.534c-10.694 0-19.362 8.668-19.362 19.362s8.668 19.362 19.362 19.362h116.172v116.171c0 10.694 8.668 19.362 19.362 19.362zM281.585 304.344c68.353 0 124.318-50.772 133.62-116.559 0.662 0.068 1.235 0.387 1.913 0.387h195.57c9.468 65.598 65.362 116.171 133.581 116.171 74.853 0 135.533-60.68 135.533-135.533s-60.68-135.533-135.533-135.533c-68.22 0-124.114 50.573-133.581 116.171h-195.57c-0.677 0-1.253 0.317-1.913 0.386-9.303-65.784-65.266-116.557-133.62-116.557-74.853 0-135.533 60.68-135.533 135.533s60.68 135.534 135.533 135.534zM746.27 72.001c53.466 0 96.809 43.341 96.809 96.809 0 53.466-43.343 96.809-96.809 96.809s-96.809-43.343-96.809-96.809c0-53.468 43.343-96.809 96.809-96.809zM281.585 72.001c53.466 0 96.809 43.341 96.809 96.809 0 53.466-43.343 96.809-96.809 96.809s-96.809-43.343-96.809-96.809c0-53.468 43.343-96.809 96.809-96.809z" />
<glyph unicode="&#xe92e;" glyph-name="no-payment" horiz-adv-x="1186" d="M1050.252 241.548c-16.547 0-29.929-13.452-29.999-29.905v-153.949c0-0.035 0-0.076 0-0.117 0-33.32-26.932-60.35-60.215-60.508h-839.602c-33.307 0.079-60.277 27.098-60.277 60.416 0 0.074 0 0.147 0 0.221v-0.011 781.033c0 0.069 0 0.151 0 0.233 0 33.323 26.967 60.347 60.268 60.439h839.526c33.341-0.119 60.323-27.174 60.323-60.532 0-0.041 0-0.082 0-0.123v0.006-162.676c0-16.733 13.452-30.255 30.022-30.255 16.687 0 30.045 13.521 30.045 30.255v168.774c0 63.604-51.084 115.107-114.409 115.107h-851.572c-63.209 0-114.362-51.503-114.362-115.107v-793.135c0-63.767 51.153-115.2 114.362-115.2h851.549c63.325 0 114.409 51.433 114.409 115.2v159.93c-0.092 16.536-13.519 29.905-30.068 29.905 0 0 0 0 0 0v0zM1072.081 602.903h-438.458c-59.276 0-107.38-45.498-113.338-103.494-0.742-1.382-1.178-3.024-1.178-4.768 0-0.189 0.005-0.377 0.015-0.564l-0.001 0.026v-95.977c0-63.535 51.153-115.014 114.502-115.014h438.528c63.209 0 114.269 51.479 114.269 115.014v89.693c0 63.535-51.153 115.084-114.339 115.084zM1126.307 404.247c0-0.007 0-0.015 0-0.024 0-33.367-26.976-60.433-60.309-60.578h-426.37c-33.312 0.106-60.277 27.135-60.277 60.462 0 0.049 0 0.098 0 0.148v-0.008 77.498c0 0.062 0 0.136 0 0.21 0 33.318 26.97 60.337 60.269 60.416h426.364c33.336-0.159 60.3-27.22 60.3-60.578 0-0.008 0-0.017 0-0.025v0.001-77.498zM1031.773 480.628c-20.364 0-36.841-16.593-36.841-37.004 0-20.387 16.477-36.911 36.841-36.911 20.247 0 36.748 16.524 36.748 36.934 0 20.387-16.477 37.004-36.771 37.004z" />
<glyph unicode="&#xe92f;" glyph-name="note" d="M533.893 906.733c-12.204 6.002-26.683 4.362-37.324-4.258-0.499-0.418-52.23-42.399-109.335-85.323-99.337-74.715-128.262-87.173-134.133-89.16h-140.75c-0.712 0-1.388-0.105-2.098-0.105h-63.545c-16.010 0-28.997-13.261-28.997-29.628v-472.851c0-16.366 12.986-29.628 28.997-29.628h229.412c5.764-2.128 33.088-15.041 121.218-88.428 51.27-42.678 97.309-84.381 97.771-84.799 6.581-5.968 14.978-9.108 23.446-9.108 4.875 0 9.82 1.046 14.445 3.175 12.666 5.827 20.814 18.67 20.814 32.873v824.785c0.035 13.854-7.72 26.451-19.925 32.454v0 0zM496.215 106.934c-15.62 13.47-33.053 28.301-50.913 43.028-117.695 97.327-146.799 105.492-166.544 105.492-0.392 0-0.746-0.105-1.139-0.105s-0.746 0.105-1.139 0.105h-176.115c-20.316 0-25.012 5.863-25.012 26.695v362.892c0 14.133 1.636 22.997 18.323 22.997h160.319c19.213 0 48.743 8.062 177.468 104.34 22.949 17.169 45.363 34.408 64.753 49.554v-715zM842.967 462.078c0 91.848-48.779 171.971-121.289 215.069-3.273 1.78-11.064 5.2-16.473 5.2-16.082 0-29.139-13.33-29.139-29.767 0-11.027 5.764-20.868 14.481-25.998v0c56.038-32.525 93.893-93.977 93.893-164.503 0-71.784-39.137-134.178-96.846-166.248v0c-8.396-5.234-13.947-14.726-13.947-25.509 0-16.437 13.058-29.767 29.139-29.767 6.831-0.070 14.943 4.047 14.943 4.047 74.716 42.539 125.237 123.953 125.237 217.477v0 0zM809.345 828.494c-5.408 3.315-10.817 6.002-17.363 6.002-16.010 0-28.997-13.261-28.997-29.628 0-11.795 6.866-21.252 16.545-26.661 106.488-63.443 178.108-181.218 178.108-316.2 0-134.876-71.514-252.583-177.895-316.060-9.322-5.165-17.363-14.971-17.363-27.080 0-16.366 12.986-29.628 28.997-29.628 6.44 0 11.563 2.513 17.148 5.827 123.566 73.631 206.678 210.322 206.678 366.939 0 156.338-82.756 292.749-205.86 366.485v0 0z" />
<glyph unicode="&#xe930;" glyph-name="order" d="M842.771 897.998h-60.358c-22.987 0-35.69-13.659-35.69-30.354s10.131-30.004 35.69-30.004h60.358c35.952 0 60.353-24.401 60.353-60.353v-694.703c0-35.952-24.401-60.353-60.353-60.353h-649.762c-35.952 0-75.755 24.401-75.755 60.353v694.703c0 35.952 24.396 60.353 60.348 60.353h61.44c11.267 0 37.438 3.851 37.438 29.115s-18.345 31.238-37.438 31.238h-61.44c-84.754 0-120.706-52.653-120.706-121.989v-687.003c0-74.476 44.947-127.123 127.123-127.123h652.329c82.188 0 127.129 43.658 127.129 127.123v687.008c0.005 69.338-42.374 121.989-120.706 121.989v0 0zM253.367 625.761c0-16.69 14.128-30.813 30.818-30.813h453.296c16.695 0 30.823 14.123 30.823 30.813 0 16.695-14.128 30.823-30.823 30.823h-453.301c-16.69-0.005-30.813-14.128-30.813-30.823v0 0zM736.188 489.648h-452.007c-16.69 0-30.818-14.128-30.818-30.823 0-16.685 14.128-30.813 30.818-30.813h453.296c16.695 0 30.823 14.128 30.823 30.813-1.289 17.979-15.418 30.823-32.113 30.823v0 0zM736.188 308.589h-452.007c-16.69 0-30.818-14.123-30.818-30.818s14.128-30.823 30.818-30.823h453.296c16.695 0 30.823 14.128 30.823 30.823-1.289 17.973-15.418 30.818-32.113 30.818v0 0zM406.171 822.227h210.599c24.406 0 44.947 24.401 44.947 52.653 0 28.246-20.545 52.647-46.236 52.647h-209.311c-25.679 0-46.225-24.396-46.225-52.647s20.545-52.653 46.225-52.653v0 0z" />
<glyph unicode="&#xe931;" glyph-name="order_fill" d="M412.626 850.269h225.904c26.132 0 48.199 24.576 48.199 54.932 0 30.31-22.021 54.799-49.597 54.799h-224.511c-27.535 0-49.566-24.489-49.566-54.799 0.005-30.356 22.057-54.932 49.572-54.932zM837.682 923.423v0h-68.577c1.137-6.001 1.802-12.063 1.802-18.222 0.041-46.105-33.444-91.489-73.221-91.489h-343.468c-41.876 0-75.366 45.378-75.366 91.489 0.041 6.159 0.676 12.221 1.823 18.222h-94.95c-90.941 0-113.295-51.553-113.295-125.931v-736.851c0-79.918 32-124.641 120.176-124.641h638.184c88.181 0 131.020 35.082 131.020 124.589v736.882c0.046 74.398-40.105 125.951-124.129 125.951zM323.928 586.872h272.162c18.929 0 34.263-15.355 34.263-34.288s-15.334-34.268-34.263-34.268h-272.162c-18.908 0-34.268 15.334-34.268 34.268 0 18.939 15.355 34.288 34.268 34.288zM769.637 210.282c0-18.939-15.329-34.268-34.263-34.268h-411.472c-18.913 0-34.242 15.329-34.242 34.268v0.041c0 18.939 15.334 34.268 34.242 34.268h411.472c18.934 0 34.263-15.329 34.263-34.268v-0.041zM769.637 380.941c0-18.929-15.329-34.258-34.263-34.258h-411.472c-18.913 0-34.242 15.329-34.242 34.258v0.072c0 18.908 15.334 34.242 34.242 34.242h411.472c18.934 0 34.263-15.329 34.263-34.242v-0.072z" />
<glyph unicode="&#xe932;" glyph-name="order2" d="M417.168 735.123h403.288c14.523 0 26.302-11.774 26.302-26.302 0-14.523-11.779-26.302-26.302-26.302h-403.288c-14.523 0-26.302 11.779-26.302 26.302 0 14.527 11.779 26.302 26.302 26.302zM417.168 586.083h403.288c14.523 0 26.302-11.774 26.302-26.302 0-14.523-11.779-26.302-26.302-26.302h-403.288c-14.523 0-26.302 11.779-26.302 26.302 0 14.528 11.779 26.302 26.302 26.302zM417.168 288h403.288c14.523 0 26.302-11.779 26.302-26.302s-11.779-26.302-26.302-26.302h-403.288c-14.523 0-26.302 11.779-26.302 26.302s11.779 26.302 26.302 26.302zM417.168 437.042h403.288c14.523 0 26.302-11.779 26.302-26.302s-11.779-26.302-26.302-26.302h-403.288c-14.523 0-26.302 11.779-26.302 26.302s11.779 26.302 26.302 26.302zM868.676-32h-473.424c-14.523 0-26.302 11.779-26.302 26.302s11.779 26.302 26.302 26.302h482.192c33.893 0 61.37 27.481 61.37 61.37v732.054c0 33.893-27.476 61.37-61.37 61.37h-517.26c-33.893 0-61.37-27.476-61.37-61.37v-723.288c0-67.788-54.952-122.739-122.739-122.739s-122.739 54.952-122.739 122.739v464.658c0 14.523 11.779 26.302 26.302 26.302s26.302-11.779 26.302-26.302v-464.658c0-38.737 31.403-70.137 70.137-70.137s70.137 31.4 70.137 70.137v714.52c0 67.788 54.953 122.739 122.739 122.739h499.726c67.788 0 122.739-54.952 122.739-122.739v-714.52c0-67.788-54.952-122.739-122.739-122.739z" />
<glyph unicode="&#xe933;" glyph-name="order3" d="M811.504 938.363h-595.982c-46.557 0-91.097-37.598-91.097-83.985v-804.652c0-46.384 44.542-90.767 91.097-90.767 0 0 503.329 0 355.068 0h89.542l236.293 255.388 6.174 14.842v625.188c0 46.386-44.542 83.985-91.095 83.985v0zM652.079 30.062v162.457c0 23.189 18.871 41.99 42.139 41.99h155.946l-197.040-204.448h-1.044zM853.382 285.078h-146.612c-46.546 0-104.701-37.602-104.701-83.983v-191.561h-385.492c-23.278 0-42.148 18.8-42.148 41.989v794.281c0 23.194 18.87 41.997 42.148 41.997h594.665c23.276 0 42.141-18.802 42.141-41.997v-560.727zM282.401 661.52h477.919v51.363h-477.919v-51.363zM283.445 536.327h475.829v50.578h-475.829v-50.578zM283.445 411.132h225.311v50.054h-225.311v-50.054zM282.66 285.937h226.094v50.057h-226.094v-50.057z" />
<glyph unicode="&#xe934;" glyph-name="person" d="M953.237 4.62h-886.866c-9.049 53.119 6.809 97.793 42.213 136.843 46.647 51.443 103.092 89.777 163.099 123.304 42.168 23.561 85.361 45.036 132.504 57.424 15.725 4.13 19.681 12.158 21.18 27.96 2.169 22.923-4.192 40.323-20.766 57.691-31.491 32.991-53.125 72.572-63.343 117.721-0.71 3.124-3.779 6.031-6.366 8.351-7.016 6.293-16.166 11-21.247 18.513-19.089 28.212-20.772 84.227 2.554 106.882 4.304 4.175 3.533 14.249 3.929 21.659 1.571 29.693-0.33 59.917 4.583 89.011 10.721 63.545 50.84 101.622 112.812 116.155 50.99 11.951 102.377 11.494 153.155-1.732 65.919-17.161 103.315-62.532 107.385-130.632 1.508-25.277-0.24-50.739 0.854-76.053 0.352-8.128 3.36-17.272 8.049-23.896 20.14-28.452 15.635-87.838-9.486-111.801-1.447-1.38-2.974-3.287-4.728-3.65-14.735-3.014-15.708-15.093-18.989-26.579-13.225-46.368-39.396-85.065-72.001-119.985-4.092-4.382-6.333-11.47-7.239-17.623-1.219-8.28-0.335-16.875-0.296-25.338 0.085-15.858 6.243-23.142 21.33-27.698 110.018-33.232 205.648-90.917 287.175-171.6 24.517-24.26 45.193-52.269 50.056-87.703 2.532-18.457 0.446-37.557 0.446-57.222v0zM572.776 67.381c0.1 34.763-3.768 67.536-18.725 98.347-9.491 19.558-21.99 33.746-46.569 28.876-2.712-0.536-5.674-0.408-8.435-0.010-8.507 1.218-14.677-2.27-19.814-8.743-27.625-34.824-32.152-75.696-32.762-118.469h126.306zM468.394 299.244c-2.327-24.052-5.691-49.094 19.307-59.972 12.738-5.539 32.202-5.103 44.897 0.739 24.863 11.448 20.509 36.25 18.195 59.234l-82.399-0.001z" />
<glyph unicode="&#xe935;" glyph-name="phone" d="M702.699 899.055h-381.415c-57.463 0-104.022-46.591-104.022-104.018v-693.455c0-57.427 46.56-104.019 104.022-104.019h381.416c57.463 0 104.022 46.592 104.022 104.019v693.455c0 57.426-46.559 104.018-104.023 104.018zM477.317 864.382h69.349c9.583 0 17.337-7.755 17.337-17.336 0-9.582-7.754-17.337-17.337-17.337h-69.349c-9.582 0-17.337 7.755-17.337 17.337 0 9.581 7.755 17.336 17.337 17.336zM511.992 39.923c-24.483 0-44.324 19.841-44.324 44.322s19.843 44.322 44.324 44.322 44.324-19.843 44.324-44.322c0.001-24.483-19.843-44.322-44.324-44.322zM737.373 188.263c0-9.582-7.754-17.336-17.337-17.336h-416.090c-9.583 0-17.338 7.754-17.338 17.336v589.437c0 9.582 7.755 17.336 17.338 17.336h416.090c9.583 0 17.337-7.755 17.337-17.336v-589.437z" />
<glyph unicode="&#xe936;" glyph-name="photo" d="M511.762 201.228c-54.858 0-106.432 21.364-145.222 60.153s-60.153 90.363-60.153 145.22c0 54.858 21.363 106.433 60.153 145.224s90.364 60.153 145.222 60.153 106.431-21.363 145.221-60.153c38.789-38.79 60.152-90.364 60.152-145.224 0-54.857-21.363-106.431-60.152-145.22s-90.364-60.153-145.221-60.153zM511.762 576.374c-93.613 0-169.773-76.159-169.773-169.773 0-93.612 76.159-169.77 169.773-169.77 93.612 0 169.771 76.158 169.771 169.77 0.001 93.613-76.159 169.773-169.771 169.773zM511.318 293.345c-61.715 0-111.922 50.207-111.922 111.922 0 61.714 50.207 111.922 111.922 111.922 61.714 0 111.92-50.209 111.92-111.922s-50.207-111.922-111.92-111.922zM511.318 481.586c-42.083 0-76.32-34.237-76.32-76.319s34.238-76.319 76.32-76.319c42.081 0 76.318 34.237 76.318 76.319s-34.237 76.319-76.318 76.319zM911.889 723.229h-244.371v5.456c0 44.596-36.282 80.877-80.879 80.877h-152.872c-44.596 0-80.877-36.281-80.877-80.877v-5.456h-242.827c-25.118 0-45.555-20.435-45.555-45.555v-527.905c0-25.119 20.436-45.556 45.555-45.556h801.826c25.119 0 45.556 20.436 45.556 45.556v527.905c-0.001 25.119-20.437 45.555-45.556 45.555zM388.494 728.686c0 24.965 20.31 45.274 45.274 45.274h152.872c24.965 0 45.274-20.31 45.274-45.274v-5.232h-243.42v5.232zM911.889 139.818h-801.826c-5.395 0-9.953 4.557-9.953 9.952v233.099c0.587-0.047 1.181-0.076 1.782-0.076h115.046c10.815 0 19.583 7.971 19.583 17.801v0c0 9.831-8.768 17.801-19.583 17.801h-115.045c-0.601 0-1.194-0.029-1.782-0.076v259.355c0 5.395 4.558 9.952 9.953 9.952h801.826c5.394 0 9.953-4.558 9.953-9.952v-259.279h-108.373c-10.814 0-19.584-7.971-19.584-17.801v0c0-9.83 8.769-17.801 19.584-17.801h108.37v-233.024c0.001-5.394-4.556-9.951-9.951-9.951z" />
<glyph unicode="&#xe937;" glyph-name="qrcode" d="M62.997 475.938h423.163v423.162h-423.163v-423.162zM168.788 793.31h211.581v-211.581h-211.581v211.581zM539.055 899.1v-423.163h423.163v423.163h-423.163zM856.426 581.729h-211.581v211.581h211.581v-211.581zM221.683 634.623h105.79v105.791h-105.79v-105.791zM62.997-0.12h423.163v423.163h-423.163v-423.163zM168.788 317.252h211.581v-211.581h-211.581v211.581zM803.532 740.415h-105.791v-105.79h105.79v105.79zM539.055-0.12h105.79v105.79h-105.79v-105.79zM644.846 317.252v-211.581h105.79v211.581h-105.79zM856.426 105.67h-105.79v-105.79h211.581v211.582h-105.79v-105.791zM856.426 317.252h105.79v105.79h-105.79v-105.79zM539.055 423.043v-105.79h105.79v105.79h-105.79zM221.683 158.566h105.79v105.79h-105.79v-105.79z" />
<glyph unicode="&#xe938;" glyph-name="return" d="M453.863 696.864c9.984-9.984 9.265-26.983-1.637-37.885l-150.206-150.674c-10.855-10.954-27.801-11.72-37.838-1.736-9.984 9.984-9.265 26.983 1.637 37.885l150.206 150.721c10.914 10.902 27.854 11.673 37.838 1.689zM958.402 698.758l-0.105 0.105c-4.472 7.824-12.767 13.012-22.273 13.012-4.607 0-8.93-1.219-12.663-3.351l0.125 0.066c-12.34-6.909-16.689-22.529-9.785-34.915-0.047 0-0.047 0 0-0.053v-0.053c123.948-221.779 45.051-502.083-176.622-626.54-221.937-124.708-502.849-45.876-627.563 176.12-124.767 221.931-45.87 502.896 176.067 627.557 166.901 93.791 366.099 71.005 508.174-39.627l0.818 0.976c0.053-0.053 0.053-0.053 0.053-0.105 4.285-3.313 9.734-5.31 15.649-5.31 8.22 0 15.54 3.857 20.247 9.86l0.042 0.056c3.342 4.282 5.359 9.739 5.359 15.668 0 8.199-3.857 15.498-9.856 20.18l-0.057 0.043c-0.462 0.357-0.976 0.462-1.38 0.719-157.735 121.587-378.749 144.934-563.362 41.263-246.459-138.486-334.060-450.578-195.573-697.183 138.434-246.459 450.631-334.007 697.136-195.573 246.511 138.486 334.001 450.625 195.568 697.084zM768.107 524.69c-0.003-14.136-11.462-25.594-25.597-25.598h-460.761c-14.136 0.003-25.594 11.462-25.598 25.597v0c0.003 14.136 11.462 25.594 25.597 25.598h460.761c14.137 0 25.598-11.46 25.598-25.598v0zM570.341 198.937c-9.99 9.978-9.271 26.977 1.631 37.879l150.773 150.668c10.902 10.954 27.854 11.726 37.838 1.689 9.984-9.984 9.271-26.983-1.637-37.885l-150.773-150.668c-10.908-10.908-27.854-11.72-37.832-1.684zM256.145 371.105c0.003 14.136 11.462 25.594 25.597 25.598h460.761c13.903-0.307 25.056-11.65 25.056-25.598s-11.153-25.291-25.028-25.597h-460.783c-14.138 0-25.6 11.46-25.603 25.597v0z" />
<glyph unicode="&#xe939;" glyph-name="right" d="M822.464 694.656c-5.192 5.738-12.666 9.328-20.979 9.328-8.918 0-16.871-4.131-22.050-10.585l-0.043-0.055-352.96-417.664-181.92 212.992c-5.228 6.441-13.144 10.523-22.014 10.523-8.368 0-15.887-3.633-21.066-9.409l-0.023-0.027c-5.835-6.529-9.401-15.192-9.401-24.689 0-8.977 3.187-17.211 8.491-23.63l-0.050 0.063 204.096-238.944c5.76-6.752 13.696-10.56 22.016-10.56h0.096c8.877 0.144 16.768 4.243 22.008 10.606l0.040 0.050 374.976 443.744c11.52 13.728 11.008 35.328-1.216 48.256z" />
<glyph unicode="&#xe93a;" glyph-name="sale" d="M504.989 943.535c-115.3 0-221.209-39.204-306.053-104.455l42.252-42.243c73.817 54.712 164.896 87.514 263.852 87.514 245.185 0 443.951-198.765 443.951-443.963 0-245.171-198.765-443.948-443.951-443.948-245.188 0-443.951 198.777-443.951 443.948 0 103.524 35.721 198.493 95.106 274.001l-42.249 42.255c-69.976-86.432-112.050-196.386-112.050-316.256 0-277.863 225.243-503.147 503.094-503.147 277.854 0 503.097 225.284 503.097 503.147s-225.243 503.147-503.097 503.147zM748.491 138.592v190.126h-437.517v-190.126h46.224v31.902h345.066v-31.902h46.227zM357.198 212.167v76.182h345.066v-76.182h-345.066zM363.709 740.88c-28.221-72.926-76.173-140.43-143.885-202.501l14.322-46.227c27.774 23.867 53.39 49.483 76.828 76.831v-189.476h479.183v39.719h-208.34v48.835h170.581v37.111h-170.581v45.579h169.279v37.114h-169.279v47.533h197.926v39.068h-189.461c-9.554 25.608-19.318 48.184-29.298 67.718l-48.181-7.814c11.72-18.231 22.351-38.204 31.902-59.904h-161.462c9.113 17.794 17.791 36.889 26.042 57.299l-45.576 9.117zM535.593 419.226h-179.697v48.835h179.696v-48.835zM535.593 505.171h-179.697v45.579h179.696v-45.579zM535.593 635.398v-47.533h-179.697v40.37l4.558 7.162h175.14z" />
<glyph unicode="&#xe93b;" glyph-name="search" d="M23.962 778.831h259.938c16.778 18.29 24.978 29.066 47.262 47.262h-307.2c-14.32 0-23.631-9.145-23.631-23.631s9.311-23.631 23.631-23.631v0 0zM23.962 377.108h330.831c-20.464 18.81-28.57 26.159-50.026 44.639h-278.512c-14.297 0-22.237-6.947-25.923-21.008-2.434-9.263 8.862-22.638 23.631-23.631v0 0zM992.823 22.646h-968.862c-14.32 0-23.631-9.121-23.631-23.631 0-14.533 11.626-23.631 25.923-23.631h971.674c14.344 0 18.527 9.098 18.527 23.631 0 14.509-9.287 23.631-23.631 23.631v0 0zM1008.869 212.354l-154.9 156.837c64.796 57.73 105.913 142.092 105.913 236.355 0 173.993-139.351 315.069-311.217 315.069-171.843 0-311.194-141.076-311.194-315.069 0-174.017 139.351-315.093 311.194-315.093 59.928 0 115.673 17.44 163.147 47.143l160.382-162.367c10.161-10.303 26.561-10.303 36.675 0 10.114 10.232 10.114 26.892 0 37.124v0 0zM648.665 342.985c-143.226 0-259.324 117.563-259.324 262.561 0 145.022 116.098 262.561 259.324 262.561 143.179 0 259.348-117.539 259.348-262.561 0-144.998-116.169-262.561-259.348-262.561v0 0z" />
<glyph unicode="&#xe93c;" glyph-name="search_add" d="M849.318 681.521c13.024-25.259 22.299-49.136 30.192-77.354 3.355-11.643 5.92-23.483 8.288-35.322 0.987-5.525 1.973-11.051 2.763-16.576 0-0.592 1.381-9.867 0.395-3.157 0.395-3.749 0.789-7.301 1.184-11.051 2.368-22.693 2.763-45.584 1.381-68.277-0.395-5.328-0.789-10.853-1.184-16.181-0.197-2.763-0.592-5.328-0.789-8.091 0-0.789-1.184-9.669-0.395-2.763-1.579-11.445-3.749-22.891-6.117-34.138-4.736-21.707-11.445-42.821-19.339-63.541-0.987-2.565-1.973-4.933-2.96-7.301 2.565 6.117-0.789-1.973-1.184-2.763-2.171-4.933-4.341-9.669-6.709-14.405-4.933-10.261-10.459-20.325-16.181-30.389-5.328-9.077-11.051-17.957-16.971-26.837-2.96-4.341-6.117-8.683-9.275-12.827-0.395-0.592-5.723-7.499-1.776-2.368-2.171-2.763-4.341-5.525-6.709-8.288-14.011-17.168-29.402-33.152-45.781-47.952-3.947-3.552-8.091-7.104-12.037-10.459-1.973-1.776-4.144-3.355-6.117-5.131-0.395-0.395-7.499-5.723-2.368-1.973-9.275-7.104-18.944-13.813-28.613-20.128-19.141-12.432-39.269-22.891-59.989-32.165-8.288-3.749 5.328 2.171-3.157-1.381-2.565-0.987-5.131-1.973-7.696-3.157-5.131-1.973-10.459-3.947-15.787-5.723-11.643-3.947-23.285-7.499-35.125-10.459-11.051-2.763-22.101-5.131-33.152-7.104-2.763-0.395-5.525-0.987-8.288-1.381-0.592 0-9.867-1.381-3.157-0.395-6.315-0.789-12.827-1.381-19.339-1.973-22.693-1.973-45.386-1.776-68.080-0.197-5.328 0.395-10.656 0.987-16.181 1.579-0.789 0-9.669 1.184-2.763 0.395-2.565 0.395-5.328 0.789-7.893 1.184-11.445 1.776-22.891 4.144-34.138 6.907-21.509 5.131-42.624 12.235-63.146 20.523 6.117-2.565-1.973 0.789-2.763 1.184-2.368 0.987-4.736 2.171-7.301 3.355-4.736 2.171-9.472 4.539-14.208 6.907-10.261 5.131-20.128 10.853-29.994 16.773-9.077 5.525-17.76 11.445-26.443 17.563l-6.512 4.736c-0.592 0.395-7.499 5.723-2.368 1.776-4.933 3.749-9.669 7.696-14.405 11.643-16.971 14.208-32.56 29.994-47.162 46.768-3.552 3.947-6.907 8.091-10.261 12.235-0.395 0.395-5.723 7.499-1.973 2.368l-4.736 6.512c-6.907 9.472-13.419 19.141-19.536 29.008-5.723 9.275-11.051 18.747-15.984 28.416-2.565 4.933-4.933 9.867-7.301 14.8-1.184 2.565-2.368 4.933-3.355 7.499-0.789 1.776-1.579 3.355-2.171 5.131 1.184-2.763 1.184-2.565-0.197 0.592-8.88 21.707-15.984 44.202-21.312 66.896-2.565 11.051-4.539 22.101-6.315 33.152-0.197 0.592-1.381 9.867-0.395 3.157-0.395 2.763-0.592 5.525-0.987 8.288-0.789 6.315-1.184 12.827-1.579 19.339-1.381 22.693-0.987 45.386 1.184 67.882 0.197 2.763 0.592 5.328 0.789 8.091 0 0.789 1.184 9.669 0.395 2.763 0.789 5.328 1.579 10.656 2.565 15.984 1.973 11.445 4.539 22.693 7.499 33.941 2.763 10.261 5.723 20.523 9.275 30.586 1.776 4.933 3.552 10.064 5.328 14.997 0.987 2.565 1.973 4.933 2.96 7.301 1.381 3.157 1.381 3.355 0 0.197 0.789 1.579 1.381 3.157 2.171 4.933 8.88 20.128 19.339 39.664 31.178 58.213 5.723 8.88 11.643 17.563 17.957 26.048 0.395 0.592 5.723 7.499 1.776 2.368 1.579 2.171 3.355 4.144 4.933 6.315 3.947 4.736 7.893 9.472 12.037 14.208 14.603 16.576 30.586 32.165 47.557 46.373 1.973 1.776 4.144 3.355 6.117 5.131 0.395 0.395 7.499 5.723 2.368 1.973 4.341 3.355 8.683 6.512 13.024 9.472 9.472 6.709 19.339 13.024 29.402 19.141 9.472 5.525 18.944 10.656 28.81 15.589 4.933 2.368 9.867 4.736 14.997 6.907 0.395 0.197 8.88 3.749 3.157 1.381 3.355 1.381 6.907 2.763 10.261 4.144 52.293 20.325 105.573 29.402 161.22 28.218 66.106-1.381 132.015-20.72 189.834-53.674 14.011-7.893 32.362-3.355 40.453 10.656 8.091 13.813 3.355 32.56-10.656 40.453-109.322 61.962-239.167 77.946-359.934 43.808-89.983-25.456-171.876-79.328-231.076-151.946-59.792-73.408-95.509-162.010-104.191-256.137-8.88-95.114 14.603-193.188 62.752-275.278 46.373-79.328 117.807-144.052 200.687-183.322 87.023-41.242 183.322-53.674 278.041-38.48 187.268 30.389 340.398 180.954 377.496 366.248 20.917 104.586 4.736 213.316-44.005 308.035-7.301 14.405-27.232 18.352-40.453 10.656-14.405-8.683-17.957-26.245-10.459-40.65zM760.913 126.623c66.304-60.581 132.41-120.965 198.713-181.546 0.197-0.197 0.395-0.395 0.592-0.395 11.84-10.853 29.994-11.84 41.834 0 11.051 11.051 11.84 30.981 0 41.834-66.304 60.581-132.41 120.965-198.713 181.546-0.197 0.197-0.395 0.395-0.592 0.395-11.84 10.853-29.994 11.84-41.834 0-11.051-11.051-12.037-30.981 0-41.834zM743.942 786.502c0-19.072 15.461-34.533 34.533-34.533s34.533 15.461 34.533 34.533v0c0 19.072-15.461 34.533-34.533 34.533s-34.533-15.461-34.533-34.533v0zM285.934 483.991h405.518c19.141 0 19.141 29.6 0 29.6h-405.518c-19.141 0-19.141-29.6 0-29.6zM463.336 698.097v-405.518c0-19.141 29.6-19.141 29.6 0v405.518c0 19.141-29.6 19.141-29.6 0z" />
<glyph unicode="&#xe93d;" glyph-name="search_fill" d="M23.962 778.831h259.938c16.778 18.29 24.978 29.066 47.262 47.262h-307.2c-14.32 0-23.631-9.145-23.631-23.631s9.311-23.631 23.631-23.631v0 0zM23.962 377.108h330.831c-20.464 18.81-28.57 26.159-50.026 44.639h-278.512c-14.297 0-22.237-6.947-25.923-21.008-2.434-9.263 8.862-22.638 23.631-23.631v0 0zM992.823 22.646h-968.862c-14.32 0-23.631-9.121-23.631-23.631 0-14.533 11.626-23.631 25.923-23.631h971.674c14.344 0 18.527 9.098 18.527 23.631 0 14.509-9.287 23.631-23.631 23.631v0 0zM1008.869 212.354l-154.9 156.837c64.796 57.73 105.913 142.092 105.913 236.355 0 173.993-139.351 315.069-311.217 315.069-171.843 0-311.194-141.076-311.194-315.069 0-174.017 139.351-315.093 311.194-315.093 59.928 0 115.673 17.44 163.147 47.143l160.382-162.367c10.161-10.303 26.561-10.303 36.675 0 10.114 10.232 10.114 26.892 0 37.124v0 0zM648.665 342.985c-143.226 0-259.324 117.563-259.324 262.561 0 145.022 116.098 262.561 259.324 262.561 143.179 0 259.348-117.539 259.348-262.561 0-144.998-116.169-262.561-259.348-262.561v0 0z" />
<glyph unicode="&#xe93e;" glyph-name="search2" d="M192 480c0 141.385 114.615 256 256 256s256-114.615 256-256v0c0-141.385-114.615-256-256-256s-256 114.615-256 256v0zM823.776 117.504l-143.2 143.168c54.129 56.971 87.424 134.188 87.424 219.18 0 0.052 0 0.104 0 0.157v-0.008c0 176.736-143.264 320-320 320s-320-143.264-320-320 143.264-320 320-320c0.066 0 0.144 0 0.221 0 68.962 0 132.797 21.95 184.899 59.246l-0.96-0.653 146.336-146.368c12.512-12.48 32.768-12.48 45.28 0 12.48 12.512 12.48 32.768 0 45.28z" />
<glyph unicode="&#xe93f;" glyph-name="selected" d="M0-64h1024v1024l-1024-1024zM693.204 150.509l-53.063-54.756-53.063 54.756-107.255 110.077 53.063 54.756 106.69-109.513 267.008 274.346 53.063-54.756-266.443-274.911z" />
<glyph unicode="&#xe940;" glyph-name="seven" d="M359.555 216.018h72.909l178.957 374.483v56.338h-265.121v-66.281h198.842v6.627zM1002.476 424.802l-82.851 96.106c-9.942 9.942-26.511 13.257-39.769 3.314-109.362-89.478-109.362-79.536-109.362-96.106s13.257-13.257 26.511-13.257c9.942 0 16.57-6.627 23.198 0s23.198 13.257 43.083 33.14c-6.627-215.411-185.584-394.367-404.309-394.367-222.039 0-404.309 178.957-404.309 404.309 0 222.039 182.271 404.309 404.309 404.309 142.503 0 268.436-72.909 344.658-192.214 6.627-9.942 13.257-13.257 23.198-13.257 3.314 0 9.942 0 13.257 3.314 13.257 6.627 16.57 26.511 9.942 36.453-86.164 135.874-231.982 218.725-391.054 218.725-245.236 0-454.020-205.469-454.020-460.649s208.783-457.334 460.649-457.334c245.236 0 447.392 195.527 457.334 437.451l36.453-43.083c6.627-6.627 13.257-9.942 19.884-9.942s13.257 3.314 16.57 6.627c16.57 6.627 16.57 26.511 6.627 36.453z" />
<glyph unicode="&#xe941;" glyph-name="share" d="M858.686-64h-693.375c-91.255 0.109-165.202 74.056-165.312 165.301v693.386c0.109 91.255 74.056 165.202 165.301 165.312h346.698c17.673 0 32-14.327 32-32s-14.327-32-32-32h-346.687c-55.872 0-101.312-45.44-101.312-101.312v-693.311c0-55.936 45.44-101.376 101.312-101.376h693.311c55.936 0 101.376 45.44 101.376 101.312v278.143c0 17.673 14.327 32 32 32s32-14.327 32-32v0-278.143c-0.109-91.255-74.056-165.202-165.301-165.312h-0.011zM366.719 217.471c-0.014 0-0.030 0-0.046 0-16.43 0-29.957 12.432-31.685 28.403l-0.012 0.141c-0.896 8.448-20.48 209.088 123.776 368.767 102.080 113.024 258.304 175.232 464.959 185.344l-91.712 107.072c-4.775 5.557-7.682 12.839-7.682 20.8 0 17.674 14.328 32.002 32.002 32.002 9.713 0 18.415-4.327 24.284-11.159l0.036-0.043 135.68-158.336c4.775-5.557 7.682-12.839 7.682-20.8 0-17.673-14.327-32-32-32-0.001 0-0.001 0-0.002 0h-6.464c-218.304 0-379.391-55.552-478.783-165.12-125.184-137.984-108.352-318.015-108.16-319.807 0.105-0.976 0.166-2.108 0.166-3.255 0-16.504-12.47-30.096-28.501-31.868l-0.144-0.013c-1.152-0.128-2.24-0.128-3.392-0.128zM856.318 556.735c-0.019 0-0.042 0-0.064 0-17.673 0-32 14.327-32 32 0 7.24 2.404 13.919 6.458 19.281l-0.058-0.080 135.68 180.928c5.904 7.822 15.184 12.826 25.632 12.826 17.687 0 32.026-14.338 32.026-32.026 0-7.239-2.402-13.917-6.452-19.281l0.059 0.081-135.68-180.928c-5.9-7.807-15.167-12.8-25.6-12.8v0z" />
<glyph unicode="&#xe942;" glyph-name="shop" d="M876.089 35.584c0.001-0.071 0.001-0.157 0.001-0.242 0-13.405-10.867-24.272-24.272-24.272-0.017 0-0.035 0-0.052 0h-679.533c-13.447 0.068-24.321 10.986-24.321 24.442 0 0.034 0 0.068 0 0.102v242.478h-48.545v-242.483c0-0.021 0-0.048 0-0.073 0-40.267 32.609-72.919 72.86-72.988h679.542c0.015 0 0.032 0 0.049 0 40.215 0 72.818 32.602 72.818 72.818 0 0.085 0 0.171 0 0.256v242.469h-48.545v-242.483zM866.987 380.449c-13.17-4.786-28.37-7.555-44.219-7.555-47.019 0-88.347 24.365-112.046 61.156l-46.46 73.199-38.326-77.041c-21.098-42.179-63.969-70.635-113.486-70.635-0.141 0-0.283 0-0.423 0.001-0.081 0-0.202 0-0.322 0-49.547 0-92.448 28.45-113.26 69.904l-38.683 77.771-46.094-72.672c-23.938-37.365-65.243-61.777-112.25-61.777-15.927 0-31.202 2.802-45.354 7.941-64.417 29.392-97.452 106.507-72.889 174.565l46.069 127.746 42.575 167.286c1.069 4.32 8.738 10.291 13.204 10.291h655.821c4.563 0 12.112-5.85 13.204-10.291l43.594-174.374 43.157-120.319c24.563-68.109-8.496-145.321-73.813-175.2zM986.457 572.13l-41.725 115.611-43.594 174.374c-6.481 26.020-33.497 47.065-60.293 47.065h-655.845c-26.797 0-53.812-21.19-60.293-47.089l-39.662-158.621-1.456-3.908-46.094-127.772c-33.375-92.575 12.137-197.045 101.727-236.342 80.755-29.564 170.394 2.135 215.444 73.133 29.452-58.258 88.842-97.508 157.401-97.526-0.006 0 0.004 0 0.016 0 68.545 0 127.921 39.261 156.866 96.523 33.281-49.855 89.665-83.050 153.802-83.050 22.274 0 43.612 4.004 63.335 11.33 88.307 39.106 133.842 143.527 100.371 236.249zM778.974 617.908h-533.949c-13.405 0-24.272-10.867-24.272-24.272s10.867-24.272 24.272-24.272h533.949c13.405 0 24.272 10.867 24.272 24.272s-10.867 24.272-24.272 24.272z" />
<glyph unicode="&#xe943;" glyph-name="square" d="M832 32h-640c-52.928 0-96 43.072-96 96v640c0 52.928 43.072 96 96 96h640c52.928 0 96-43.072 96-96v-640c0-52.928-43.072-96-96-96zM192 800c-17.632 0-32-14.368-32-32v-640c0-17.664 14.368-32 32-32h640c17.664 0 32 14.336 32 32v640c0 17.632-14.336 32-32 32h-640z" />
<glyph unicode="&#xe944;" glyph-name="star" d="M695.104 413.632c-20.16-19.808-31.328-54.4-26.56-82.368l26.976-158.56-140.992 74.688c-25.056 13.248-61.408 13.28-86.464 0l-140.992-74.656 27.008 158.56c4.736 27.904-6.464 62.528-26.56 82.336l-114.56 112.512 158.080 23.136c27.936 4.096 57.312 25.6 69.792 51.040l70.464 143.872 70.464-143.872c12.512-25.472 41.856-46.944 69.824-51.040l158.080-23.136-114.56-112.512zM877.632 503.168c14.976 14.72 20.384 32.96 14.816 50.016-5.536 17.024-20.64 28.512-41.344 31.552l-190.272 27.872c-6.944 1.024-18.432 9.472-21.6 15.872l-85.088 173.76c-9.248 18.88-24.896 29.76-42.88 29.76-17.92 0-33.568-10.88-42.848-29.76l-85.056-173.76c-3.136-6.4-14.656-14.848-21.632-15.872l-190.272-27.84c-20.704-3.072-35.744-14.56-41.28-31.584-5.6-17.024-0.192-35.264 14.784-50.016l137.664-135.168c5.12-5.024 9.6-18.848 8.352-25.92l-32.512-190.944c-3.52-20.8 2.784-38.816 17.344-49.344 7.52-5.44 16.256-8.16 25.472-8.16 8.576 0 17.632 2.368 26.56 7.104l170.176 90.144c6.080 3.2 20.48 3.2 26.56 0l170.144-90.144c18.496-9.824 37.504-9.408 52.032 1.056 14.56 10.56 20.896 28.512 17.376 49.312l-32.512 190.976c-1.216 7.072 3.232 20.896 8.32 25.92l137.696 135.2z" />
<glyph unicode="&#xe945;" glyph-name="star_fill" d="M877.632 503.2c14.976 14.72 20.384 32.96 14.816 49.984-5.536 17.024-20.608 28.544-41.344 31.584l-190.24 27.84c-6.976 1.024-18.464 9.472-21.6 15.904l-85.12 173.696c-9.28 18.944-24.896 29.76-42.88 29.76-17.952 0-33.6-10.816-42.816-29.76l-85.12-173.696c-3.104-6.432-14.592-14.848-21.6-15.904l-190.24-27.84c-20.704-3.040-35.776-14.56-41.344-31.584s-0.16-35.232 14.816-49.984l137.696-135.232c5.088-4.992 9.536-18.816 8.32-25.92l-32.48-190.912c-3.552-20.832 2.752-38.816 17.344-49.344 7.52-5.44 16.224-8.16 25.472-8.16 8.576 0 17.6 2.336 26.56 7.040l170.176 90.176c6.048 3.2 20.448 3.2 26.528 0l170.144-90.112c18.528-9.856 37.504-9.44 52.064 1.056 14.56 10.528 20.864 28.48 17.344 49.28l-32.48 190.976c-1.28 7.104 3.2 20.928 8.32 25.92l137.664 135.232z" />
<glyph unicode="&#xe946;" glyph-name="star1" d="M511.3 867.9l138.5-280.5 309.5-45-224-218.3 52.9-308.3-276.9 145.6-276.8-145.6 52.8 308.3-224 218.3 309.6 45z" />
<glyph unicode="&#xe947;" glyph-name="sub" d="M954.086 428.8h-884.173c-10.598 0-19.2 8.602-19.2 19.2s8.602 19.2 19.2 19.2h884.147c10.598 0 19.2-8.602 19.2-19.2s-8.576-19.2-19.174-19.2z" />
<glyph unicode="&#xe948;" glyph-name="user" d="M988.65 64.039c0.385 1.673 0.605 3.594 0.605 5.567s-0.221 3.893-0.638 5.739c-18.071 90.425-58.838 169.487-116.107 233.471 31.751-38.541 23.642-33.697 14.399-33.697-14.299 0-25.89-11.591-25.89-25.89 0-6.003 2.043-11.527 5.472-15.919 42.884-60.802 71.005-134.934 77.607-215.17-7.856 52.257-7.918 51.221-7.918 50.173s0.062-2.083 0.183-3.101c0.156-1.469 0.252-3.315 0.252-5.185s-0.096-3.716-0.284-5.535c0.019-28.369-23.164-51.554-51.762-51.554h-7.508c-1.515 0.177-3.27 0.278-5.049 0.278s-3.534-0.101-5.26-0.298l-720.071 0.019c-0.543 0.039-1.175 0.063-1.812 0.063s-1.27-0.022-1.895-0.068c-1.39-0.144-3.103-0.229-4.836-0.229-28.598 0-51.781 23.184-51.781 51.781 0 0.083 0 0.165 0 0.246-0.123 1.345-0.193 2.924-0.193 4.518s0.070 3.173 0.207 4.733c38.907 202.9 214.549 354.493 425.836 355.798 0.051-0.001 0.356-0.001 0.66-0.001 57.742 0 112.796-11.51 162.99-32.365 0.165-0.254 3.636-1.005 7.282-1.005 14.353 0 25.991 11.636 25.991 25.991 0 10.707-6.476 19.903-15.724 23.884-43.533 17.925-93.759 29.788-146.299 33.138 169.749 31.361 223.024 116.434 223.024 213.953 0 143.341-115.103 259.796-257.923 261.984-142.708-2.851-257.136-119.043-257.136-261.963 0-97.347 53.088-182.295 131.892-227.471-182.542-52.083-320.821-203.337-352.573-390.828l2.514 10.075c0-1.812 0-4.143-1.553-6.213-0.15-1.051-0.237-2.262-0.237-3.495s0.086-2.445 0.253-3.633l-0.016-5.559c0-57.196 46.367-103.563 103.563-103.563 0 0 0 0 0 0h749.279c0 0 0 0 0 0 57.196 0 103.563 46.367 103.563 103.563 0 0 0 0 0 0-2.071 1.812-2.848 4.66-3.107 7.767zM307.462 684.124c2.609 111.51 93.625 200.91 205.52 200.91 113.535 0 205.572-92.038 205.572-205.572s-92.038-205.572-205.572-205.572c-0.346 0-0.69 0.001-1.037 0.002-113.231 1.449-204.508 93.62-204.508 207.109 0 1.098 0.007 2.195 0.025 3.289zM769.354 335.634c0-21.878 17.388-39.613 38.836-39.613s38.836 17.734 38.836 39.613c0 21.878-17.388 39.613-38.836 39.613s-38.836-17.734-38.836-39.613z" />
<glyph unicode="&#xe949;" glyph-name="user_fill" d="M1002.371 64.558c0.158 1.321 0.25 2.851 0.25 4.402s-0.090 3.079-0.267 4.585c-21.731 181.054-158.434 330.185-336.562 388.178 69.921 49.205 115.046 129.561 115.046 220.455 0 148.425-120.321 268.747-268.747 268.747s-268.747-120.321-268.747-268.747c0-89.478 43.728-168.742 110.981-217.589-175.739-54.487-306.621-204.258-332.241-387.75l1.874 9.984c-1.47-6.928-2.311-14.886-2.311-23.043 0-64.053 51.92-115.981 115.97-115.99h748.763c0 0 0 0 0 0 64.061 0 115.99 51.932 115.99 115.99 0 0 0 0 0 0v0.778z" />
<glyph unicode="&#xe94a;" glyph-name="user2" d="M541.215 930.227c-64.804 4.265-109.036-10.639-141.215-23.88-90.281-37.12-153.252-104.448-182.508-202.061-47.007-156.815 60.908-325.115 165.125-358.508-37.652-17.377-75.325-34.765-112.978-52.147-98.406-61.394-206.326-183.429-210.76-334.592 18.831 0 37.663 0 56.494 0 23.639 170.926 139.351 286.894 288.973 332.431 248.893 75.745 498.058-122.465 510.597-332.431 18.831 0 37.658 0 56.489 0-11.177 171.172-168.407 355.727-321.567 382.403-0.727 1.449-1.449 2.898-2.176 4.347 125.696 40.049 221.025 229.955 154.266 393.267-43.269 105.871-131.333 170.245-260.726 191.201-3.825 0.62-29.696-54.456-27.177-54.579 182.185-8.663 318.116-181.888 233.58-371.272-36.685-82.196-113.382-129.239-217.277-145.577-175.268-27.551-324.884 179.61-258.55 349.809 28.616 73.431 89.462 132.439 167.301 156.442 23.941 7.286 39.337 11.453 75.095 10.726 2.54-0.061 30.807 54.164 27.013 54.42z" />
<glyph unicode="&#xe94b;" glyph-name="user-set" d="M937.062 338.312h86.938v219.438h-86.938c-88.188 0-109.188 50.938-47 113.188l61.562 61.562-155.188 155.126-61.5-61.5c-62.312-62.312-113.312-41.188-113.126 46.876 0 0.25-0.126 0.376-0.126 0.562v86.436h-219.34v-87.25c-0.25-87.876-51.062-108.876-113.282-46.626l-61.532 61.5-155.124-155.124 61.5-61.562c62.282-62.25 41.156-113.188-46.876-113.188h-87.030v-219.438h87.032c88.032 0 109.156-50.938 46.876-113.25l-61.5-61.5 155.126-155.188 61.532 61.562c62.218 62.188 113.032 41.188 113.282-46.626v-87.31h219.344v86.438c0 0.188 0.126 0.376 0.126 0.562-0.188 88.062 50.812 109.126 113.126 46.938l61.5-61.562 155.188 155.188-61.562 61.5c-62.194 62.31-41.194 113.248 46.992 113.248zM512 256c-106.032 0-192 86-192 192s85.968 192 192 192c106 0 192-86 192-192s-86-192-192-192z" />
</font>
</defs>
</svg>
