<?xml version="1.0" encoding="utf-8"?>
<!-- Generator: Adobe Illustrator 16.0.0, SVG Export Plug-In . SVG Version: 6.00 Build 0)  -->
<!DOCTYPE svg PUBLIC "-//W3C//DTD SVG 1.1//EN" "http://www.w3.org/Graphics/SVG/1.1/DTD/svg11.dtd">
<svg version="1.1" id="图层_1" xmlns="http://www.w3.org/2000/svg" xmlns:xlink="http://www.w3.org/1999/xlink" x="0px" y="0px"
	 width="829.667px" height="106.373px" viewBox="0 0 829.667 106.373" enable-background="new 0 0 829.667 106.373"
	 xml:space="preserve">
<path fill="#FFFFFF" d="M175.223,75.642c2.826,2.119,6.005,3.18,9.538,3.18c2.826,0,4.945-0.706,6.711-2.118
	c1.766-1.413,2.473-3.181,2.473-5.652c0-4.944-3.886-7.771-11.304-7.771h-3.532v-4.24h3.179c6.358,0,9.891-2.473,9.891-7.418
	c0-4.592-2.473-6.711-7.418-6.711c-2.826,0-5.652,1.06-8.125,2.825v-4.945c2.473-1.412,5.652-2.473,9.537-2.473
	c3.533,0,6.358,1.061,8.479,2.826c2.119,1.767,3.178,4.239,3.178,7.064c0,5.299-2.825,8.831-8.124,10.244l0,0
	c2.826,0.354,5.298,1.413,7.065,3.179c1.766,1.767,2.473,3.886,2.473,6.712c0,3.887-1.414,6.711-3.887,8.831
	c-2.473,2.472-6.357,3.532-10.596,3.532c-3.886,0-7.065-0.707-9.538-2.12V75.642L175.223,75.642L175.223,75.642z M205.955,62.926
	c0-7.418,1.413-12.717,3.532-16.249c2.473-3.886,6.005-5.651,10.243-5.651c8.832,0,13.07,7.064,13.07,21.193
	c0,7.065-1.413,12.363-3.886,15.896c-2.473,3.886-6.005,5.299-10.243,5.299c-4.239,0-7.418-1.767-9.537-5.299
	C207.014,74.582,205.955,69.284,205.955,62.926L205.955,62.926L205.955,62.926z M211.253,62.571c0,10.951,2.826,16.25,8.124,16.25
	s8.124-5.652,8.124-16.604c0-11.303-2.473-17.308-8.124-17.308C214.08,45.263,211.253,50.916,211.253,62.571L211.253,62.571
	L211.253,62.571z M237.039,7.468c-1.766,0-3.531-1.412-3.531-3.532V3.229c0-1.767-1.414-3.532-3.533-3.532h-0.706
	c-1.767,0-3.532,1.413-3.532,3.532v0.706c0,1.767-1.413,3.532-3.533,3.532h-38.15c-1.766,0-3.532-1.412-3.532-3.532V3.229
	c0-1.767-1.413-3.532-3.533-3.532h-0.353c-1.766,0-3.532,1.413-3.532,3.532v0.706c0,1.767-1.413,3.532-3.532,3.532h-15.896
	c-1.766,0-3.532,1.413-3.532,3.532v91.486c0,1.768,1.413,3.533,3.532,3.533h99.259c1.766,0,3.531-1.412,3.531-3.533V11
	c0-1.766-1.412-3.532-3.531-3.532H237.039L237.039,7.468L237.039,7.468z M250.109,94.717c0,1.767-0.354,4.945-4.592,4.945h-84.07
	c-3.886,0-4.945-3.181-4.945-4.945V18.418c0-2.825,2.826-4.592,4.945-4.592h8.125c1.766,0,3.532,2.473,3.532,4.592v2.826
	c0,1.767,1.413,3.532,3.532,3.532h0.707c1.766,0,3.532-1.413,3.532-3.532v-2.826c-0.353-1.766,1.413-4.238,3.179-4.238h38.502
	c1.767,0,3.533,2.473,3.533,4.238v2.826c0,1.767,1.412,3.532,3.531,3.532h0.707c1.766,0,3.532-1.413,3.532-3.532v-2.826
	c0-1.766,1.413-4.238,3.532-4.238h8.125c2.825,0,4.592,1.766,4.592,4.238L250.109,94.717L250.109,94.717L250.109,94.717z"/>
<path fill="#FFFFFF" d="M89.523,7.77c-1.766,0-3.531-1.412-3.531-3.532V3.532C85.992,1.765,84.578,0,82.459,0h-0.705
	c-1.768,0-3.533,1.413-3.533,3.532v0.706c0,1.767-1.412,3.532-3.533,3.532H36.54c-1.766,0-3.532-1.412-3.532-3.532V3.532
	C33.008,1.765,31.595,0,29.475,0h-0.353c-1.766,0-3.532,1.413-3.532,3.532v0.706c0,1.767-1.413,3.532-3.532,3.532H6.162
	c-1.766,0-3.532,1.413-3.532,3.532v91.487c0,1.767,1.413,3.532,3.532,3.532h99.258c1.766,0,3.531-1.412,3.531-3.532V11.302
	c0-1.766-1.412-3.532-3.531-3.532H89.523L89.523,7.77L89.523,7.77z M102.593,95.019c0,1.768-0.354,4.945-4.592,4.945H13.932
	c-3.886,0-4.945-3.18-4.945-4.945V18.72c0-2.825,2.826-4.592,4.945-4.592h8.125c1.766,0,3.532,2.473,3.532,4.592v2.826
	c0,1.767,1.413,3.532,3.532,3.532h0.707c1.766,0,3.532-1.413,3.532-3.532V18.72c-0.353-1.766,1.413-4.238,3.179-4.238H75.04
	c1.768,0,3.533,2.473,3.533,4.238v2.826c0,1.767,1.412,3.532,3.531,3.532h0.707c1.766,0,3.533-1.413,3.533-3.532V18.72
	c0-1.766,1.412-4.238,3.531-4.238H98c2.826,0,4.592,1.766,4.592,4.238L102.593,95.019L102.593,95.019L102.593,95.019z"/>
<text transform="matrix(1 0 0 1 38.3057 79.168)" fill="#FFFFFF" font-family="'MicrosoftYaHei'" font-size="56.5172">7</text>
<path fill="#FFFFFF" d="M365.783,48.542c-1.988-1.553-4.861-1.197-6.41,0.793c0,0,0,0.002-0.006,0.002l-14.197,18.268l-7.346-5.924
	c-1.994-1.546-4.863-1.184-6.41,0.809c-1.506,1.941-1.209,4.728,0.676,6.304l10.941,8.842c1.963,1.583,4.838,1.269,6.42-0.696
	c0.014-0.017,0.031-0.037,0.045-0.056l17.021-21.93C368.083,52.979,367.755,50.111,365.783,48.542z"/>
<path fill="#FFFFFF" d="M384.283,10.198h-21.832c-1.578-6.117-7.162-10.341-13.48-10.195c-6.318-0.146-11.904,4.078-13.482,10.195
	h-21.84c-6.646,0-12.723,4.711-12.723,11.358v71.302c0,6.643,6.074,13.201,12.721,13.201h70.637c6.646,0,12.496-6.561,12.496-13.201
	V21.557C396.777,14.909,390.927,10.198,384.283,10.198z M348.968,8.406c2.697,0,4.893,2.189,4.893,4.892
	c0,2.702-2.191,4.892-4.893,4.892c-2.703,0-4.893-2.19-4.893-4.892c0.023-2.686,2.205-4.85,4.893-4.854V8.406z M387.824,92.858
	c0,1.608-1.928,5.141-3.541,5.141h-70.639c-1.609,0-3.762-3.53-3.762-5.141V21.557c0-1.612,2.156-2.401,3.762-2.401h7.885v3.756
	c0,2.524,1.936,5.204,4.479,5.204h45.689c2.521,0,5.377-2.687,5.377-5.204v-3.756h7.209c1.613,0,3.541,0.789,3.541,2.401V92.858
	L387.824,92.858z"/>
<path fill="#FFFFFF" d="M527.291,10.344h-21.9C503.974,4.34,498.328,0.1,491.964,0.1c-6.354,0-12.01,4.239-13.422,10.244h-21.898
	c-6.713,0-12.719,4.592-12.719,11.304v71.353c0,6.357,6.357,13.068,12.719,13.068h70.646c6.711,0,12.363-6.711,12.363-13.068V21.648
	C540.003,14.936,534,10.344,527.291,10.344z M491.964,8.579c2.826,0,4.945,2.119,4.945,4.944c0,2.826-2.119,4.593-4.945,4.593
	c-2.824,0-4.941-2.12-4.941-4.945C487.375,10.698,489.496,8.579,491.964,8.579L491.964,8.579z M530.824,93.001
	c0,1.768-1.77,5.299-3.531,5.299h-70.646c-1.768,0-3.887-3.531-3.887-5.299V21.648c0.354-1.767,2.473-2.473,3.887-2.473h7.771v3.886
	c0.354,2.473,2.119,5.298,4.592,5.298h45.566c2.826,0,5.65-2.825,5.65-5.298v-3.886h7.064c1.766,0,3.531,0.706,3.531,2.473v71.353
	H530.824z"/>
<text transform="matrix(1 0 0 1 462.5317 83.9941)" fill="#FFFFFF" font-family="'MicrosoftYaHei'" font-size="56.5172">￥</text>
<path fill="#E78061" d="M621.28,66.112c0.877-0.326,1.957-0.615,3.226-1.4c1.845-1.131,3.271-3.459-0.17-6.313
	c-11.384-15.948-7.235-26.54-5.509-30.524c-1.585-0.594-3.266-0.891-4.959-0.877h-0.589c-10.892,0-13.784,9.636-14.013,15.027
	c-0.145,12.737,7.856,17.807,7.856,17.807s0.504,0.668,0.504,2.611c0,0.443-0.301,1.771-0.817,2.164
	c-4.469,3.52-19.391,7.189-20.437,14.771c-0.551,2.191-0.217,4.461-0.105,6.568c2.447,1.818,10.271,3.369,10.271,3.369
	s0.648-1.924,1.309-5.09C598.808,79.556,605.336,71.968,621.28,66.112z M690.429,79.321c-1.066-7.568-16.395-11.232-20.974-14.752
	c-0.53-0.4-0.825-1.727-0.825-2.166c0-1.943,0.504-2.609,0.504-2.609s8.211-5.058,8.066-17.781
	c-0.229-5.397-3.688-15.014-14.359-15.014h-0.608c-2.303,0-4.232,0.419-5.888,1.119c2.29,7.432,5.024,21.065-6.522,30.198
	c-4.533,6.561,10.559,10.414,8.21,9.387c13.653,5.967,17.317,10.533,18.325,15.262c0.837,3.953,1.308,6.359,1.308,6.359
	s10.226-1.51,12.875-3.447C690.652,83.782,690.992,81.513,690.429,79.321z M645.924,64.778c-0.648-0.498-1.021-2.139-1.021-2.688
	c0-2.416,0.621-3.238,0.621-3.238c-0.012,0.012,10.096-5.3,9.892-22.1c-0.274-6.712-4.52-18.665-17.617-18.665h-0.745
	c-13.699,0-17.344,11.952-17.618,18.665c-0.177,15.806,9.892,22.1,9.892,22.1s1.217,1.354,1.217,3.76
	c0,0.551-0.969,1.668-1.615,2.166c-5.62,4.371-25.868,8.773-27.183,18.186c-1.021,3.998-7.026,10.324,12.953,12.877
	c5.502,0.699,12.979,1.117,23.087,1.117c46.35,0,36.76-8.727,35.465-13.842C671.954,73.708,651.542,69.149,645.924,64.778z"/>
<path fill="#DEB25E" d="M791.244,34.673c4.938-4.32,10.491-9.874,9.257-13.576c-1.234-3.085-3.703-6.788-7.405-8.022
	c-3.085-1.234-6.17-0.618-9.874,1.234c-1.233-2.468-4.318-3.703-6.787-4.32c-4.319,0-8.023,1.234-10.491,4.937
	c-4.32-1.851-8.022-1.234-11.108,0.617c-1.852,1.234-3.702,3.703-3.702,8.639s4.936,8.64,8.639,11.108
	c-7.404,4.937-23.449,17.279-22.215,40.729c-1.234,18.514,15.427,20.364,15.427,20.364h45.667
	c5.553-0.617,15.427-5.554,15.427-18.513V76.02C815.311,51.952,798.65,38.993,791.244,34.673z M790.183,73.897h-11.725v7.405
	c0,1.233-1.234,1.851-2.469,1.851s-2.468-0.617-2.468-1.851v-7.405h-11.726c-1.234,0-1.852-1.234-1.852-2.468
	c0-1.234,0.617-2.469,1.852-2.469h11.726v-4.32h-6.789c-1.234,0-1.851-1.233-1.851-2.468c0-1.235,0.616-2.469,1.851-2.469h5.554
	l-6.788-6.789c-0.616-0.617,0-1.851,1.234-2.468c1.235-0.618,2.469-1.234,3.086-0.618l6.171,6.789l6.789-7.405
	c0.616-0.618,1.851,0,3.085,0.616c1.233,0.618,1.233,1.852,1.233,2.469l-7.404,8.023h5.554c1.234,0,1.851,1.233,1.851,2.468
	c0,1.233-0.616,2.468-1.851,2.468h-6.788v4.32h11.725c1.234,0,1.852,1.234,1.852,2.469
	C792.035,72.663,790.801,73.897,790.183,73.897z"/>
</svg>
